0
SECTION
2
HEADER
9
$ACADVER
1
AC1009
0
ENDSEC
0
SECTION
2
TABLES
0
TABLE
2
LAYER
70
12
0
LAYER
2
0
70
0
62
7
6
CONTINUOUS
0
LAYER
2
KHUNG_BAN_VE
70
0
62
7
6
CONTINUOUS
0
LAYER
2
BEAM_CONCRETE
70
0
62
8
6
CONTINUOUS
0
LAYER
2
REBAR_TOP
70
0
62
1
6
CONTINUOUS
0
LAYER
2
REBAR_BOT
70
0
62
5
6
CONTINUOUS
0
LAYER
2
REBAR_STIRRUP
70
0
62
4
6
CONTINUOUS
0
LAYER
2
DIMENSION
70
0
62
2
6
CONTINUOUS
0
LAYER
2
TEXT
70
0
62
3
6
CONTINUOUS
0
LAYER
2
TEXT_TITLE
70
0
62
2
6
CONTINUOUS
0
LAYER
2
TABLE_GRID
70
0
62
7
6
CONTINUOUS
0
LAYER
2
TABLE_HEADER
70
0
62
2
6
CONTINUOUS
0
LAYER
2
HATCH_ZONE
70
0
62
8
6
CONTINUOUS
0
ENDTAB
0
TABLE
2
STYLE
70
1
0
STYLE
2
STANDARD
70
0
40
0.0
41
1.0
50
0.0
71
0
42
2.5
3
Arial
4

0
ENDTAB
0
ENDSEC
0
SECTION
2
ENTITIES
0
LINE
8
KHUNG_BAN_VE
10
20.0000
20
20.0000
30
0.0
11
1280.0000
21
20.0000
31
0.0
0
LINE
8
KHUNG_BAN_VE
10
1280.0000
20
20.0000
30
0.0
11
1280.0000
21
830.0000
31
0.0
0
LINE
8
KHUNG_BAN_VE
10
1280.0000
20
830.0000
30
0.0
11
20.0000
21
830.0000
31
0.0
0
LINE
8
KHUNG_BAN_VE
10
20.0000
20
830.0000
30
0.0
11
20.0000
21
20.0000
31
0.0
0
LINE
8
KHUNG_BAN_VE
10
25.0000
20
25.0000
30
0.0
11
1275.0000
21
25.0000
31
0.0
0
LINE
8
KHUNG_BAN_VE
10
1275.0000
20
25.0000
30
0.0
11
1275.0000
21
825.0000
31
0.0
0
LINE
8
KHUNG_BAN_VE
10
1275.0000
20
825.0000
30
0.0
11
25.0000
21
825.0000
31
0.0
0
LINE
8
KHUNG_BAN_VE
10
25.0000
20
825.0000
30
0.0
11
25.0000
21
25.0000
31
0.0
0
TEXT
8
TEXT_TITLE
10
650.0000
20
805.0000
30
0.0
40
10.0000
1
QUY \U+0110\U+1ECANH C\U+1EA4U T\U+1EA0O NEO, N\U+1ED0I V\U+00C0 U\U+1ED0N M\U+00D3C C\U+1ED0T TH\U+00C9P (TCVN 5574:2018 & TCVN 1651:2018)
72
1
11
650.0000
21
805.0000
31
0.0
0
TEXT
8
TEXT
10
650.0000
20
788.0000
30
0.0
40
5.0000
1
TI\U+00CAU CHU\U+1EA8N THI\U+1EBET K\U+1EBE B\U+00CA T\U+00D4NG C\U+1ED0T TH\U+00C9P HI\U+1EC6N H\U+00C0NH VI\U+1EC6T NAM - B\U+1EA2N V\U+1EBC GHI CH\U+00DA CHUNG (GENERAL NOTES)
72
1
11
650.0000
21
788.0000
31
0.0
0
LINE
8
KHUNG_BAN_VE
10
30.0000
20
778.0000
30
0.0
11
1270.0000
21
778.0000
31
0.0
0
TEXT
8
TEXT_TITLE
10
230.0000
20
762.0000
30
0.0
40
6.0000
1
CHI TI\U+1EBET 1: N\U+1ED0I SO LE C\U+1ED0T TH\U+00C9P C\U+1ED8T (TCVN 5574:2018)
72
1
11
230.0000
21
762.0000
31
0.0
0
LINE
8
BE_TONG
10
90.0000
20
440.0000
30
0.0
11
310.0000
21
440.0000
31
0.0
0
LINE
8
BE_TONG
10
310.0000
20
440.0000
30
0.0
11
310.0000
21
460.0000
31
0.0
0
LINE
8
BE_TONG
10
310.0000
20
460.0000
30
0.0
11
90.0000
21
460.0000
31
0.0
0
LINE
8
BE_TONG
10
90.0000
20
460.0000
30
0.0
11
90.0000
21
440.0000
31
0.0
0
TEXT
8
TEXT
10
80.0000
20
450.0000
30
0.0
40
4.0000
1
S\U+00C0N D\U+01AF\U+1EDAI
72
2
11
80.0000
21
450.0000
31
0.0
0
LINE
8
BE_TONG
10
90.0000
20
720.0000
30
0.0
11
310.0000
21
720.0000
31
0.0
0
LINE
8
BE_TONG
10
310.0000
20
720.0000
30
0.0
11
310.0000
21
740.0000
31
0.0
0
LINE
8
BE_TONG
10
310.0000
20
740.0000
30
0.0
11
90.0000
21
740.0000
31
0.0
0
LINE
8
BE_TONG
10
90.0000
20
740.0000
30
0.0
11
90.0000
21
720.0000
31
0.0
0
TEXT
8
TEXT
10
80.0000
20
730.0000
30
0.0
40
4.0000
1
S\U+00C0N TR\U+00CAN
72
2
11
80.0000
21
730.0000
31
0.0
0
LINE
8
BE_TONG
10
150.0000
20
460.0000
30
0.0
11
150.0000
21
720.0000
31
0.0
0
LINE
8
BE_TONG
10
250.0000
20
460.0000
30
0.0
11
250.0000
21
720.0000
31
0.0
0
LINE
8
VUNG_CAM_NOI
10
130.0000
20
525.0000
30
0.0
11
138.0000
21
525.0000
31
0.0
0
LINE
8
VUNG_CAM_NOI
10
142.0000
20
525.0000
30
0.0
11
150.0000
21
525.0000
31
0.0
0
LINE
8
VUNG_CAM_NOI
10
154.0000
20
525.0000
30
0.0
11
162.0000
21
525.0000
31
0.0
0
LINE
8
VUNG_CAM_NOI
10
166.0000
20
525.0000
30
0.0
11
174.0000
21
525.0000
31
0.0
0
LINE
8
VUNG_CAM_NOI
10
178.0000
20
525.0000
30
0.0
11
186.0000
21
525.0000
31
0.0
0
LINE
8
VUNG_CAM_NOI
10
190.0000
20
525.0000
30
0.0
11
198.0000
21
525.0000
31
0.0
0
LINE
8
VUNG_CAM_NOI
10
202.0000
20
525.0000
30
0.0
11
210.0000
21
525.0000
31
0.0
0
LINE
8
VUNG_CAM_NOI
10
214.0000
20
525.0000
30
0.0
11
222.0000
21
525.0000
31
0.0
0
LINE
8
VUNG_CAM_NOI
10
226.0000
20
525.0000
30
0.0
11
234.0000
21
525.0000
31
0.0
0
LINE
8
VUNG_CAM_NOI
10
238.0000
20
525.0000
30
0.0
11
246.0000
21
525.0000
31
0.0
0
LINE
8
VUNG_CAM_NOI
10
250.0000
20
525.0000
30
0.0
11
258.0000
21
525.0000
31
0.0
0
LINE
8
VUNG_CAM_NOI
10
262.0000
20
525.0000
30
0.0
11
270.0000
21
525.0000
31
0.0
0
LINE
8
VUNG_CAM_NOI
10
130.0000
20
655.0000
30
0.0
11
138.0000
21
655.0000
31
0.0
0
LINE
8
VUNG_CAM_NOI
10
142.0000
20
655.0000
30
0.0
11
150.0000
21
655.0000
31
0.0
0
LINE
8
VUNG_CAM_NOI
10
154.0000
20
655.0000
30
0.0
11
162.0000
21
655.0000
31
0.0
0
LINE
8
VUNG_CAM_NOI
10
166.0000
20
655.0000
30
0.0
11
174.0000
21
655.0000
31
0.0
0
LINE
8
VUNG_CAM_NOI
10
178.0000
20
655.0000
30
0.0
11
186.0000
21
655.0000
31
0.0
0
LINE
8
VUNG_CAM_NOI
10
190.0000
20
655.0000
30
0.0
11
198.0000
21
655.0000
31
0.0
0
LINE
8
VUNG_CAM_NOI
10
202.0000
20
655.0000
30
0.0
11
210.0000
21
655.0000
31
0.0
0
LINE
8
VUNG_CAM_NOI
10
214.0000
20
655.0000
30
0.0
11
222.0000
21
655.0000
31
0.0
0
LINE
8
VUNG_CAM_NOI
10
226.0000
20
655.0000
30
0.0
11
234.0000
21
655.0000
31
0.0
0
LINE
8
VUNG_CAM_NOI
10
238.0000
20
655.0000
30
0.0
11
246.0000
21
655.0000
31
0.0
0
LINE
8
VUNG_CAM_NOI
10
250.0000
20
655.0000
30
0.0
11
258.0000
21
655.0000
31
0.0
0
LINE
8
VUNG_CAM_NOI
10
262.0000
20
655.0000
30
0.0
11
270.0000
21
655.0000
31
0.0
0
TEXT
8
VUNG_CAM_NOI
10
275.0000
20
492.5000
30
0.0
40
3.5000
1
V\U+00D9NG C\U+1EA4M N\U+1ED0I (H/4)
0
TEXT
8
TEXT_TITLE
10
275.0000
20
590.0000
30
0.0
40
3.5000
1
V\U+00D9NG N\U+1ED0I CHO PH\U+00C9P (H/2 GI\U+1EEEA T\U+1EA6NG)
0
TEXT
8
VUNG_CAM_NOI
10
275.0000
20
687.5000
30
0.0
40
3.5000
1
V\U+00D9NG C\U+1EA4M N\U+1ED0I (H/4)
0
LINE
8
THEP_CHU
10
170.0000
20
445.0000
30
0.0
11
170.0000
21
595.0000
31
0.0
0
LINE
8
THEP_CHU
10
175.0000
20
545.0000
30
0.0
11
175.0000
21
735.0000
31
0.0
0
LINE
8
DIMENSION
10
160.0000
20
545.0000
30
0.0
11
160.0000
21
595.0000
31
0.0
0
LINE
8
DIMENSION
10
156.0000
20
545.0000
30
0.0
11
164.0000
21
545.0000
31
0.0
0
LINE
8
DIMENSION
10
156.0000
20
595.0000
30
0.0
11
164.0000
21
595.0000
31
0.0
0
LINE
8
DIMENSION
10
160.0000
20
545.0000
30
0.0
11
162.0000
21
550.0000
31
0.0
0
LINE
8
DIMENSION
10
160.0000
20
545.0000
30
0.0
11
158.0000
21
550.0000
31
0.0
0
LINE
8
DIMENSION
10
160.0000
20
595.0000
30
0.0
11
162.0000
21
590.0000
31
0.0
0
LINE
8
DIMENSION
10
160.0000
20
595.0000
30
0.0
11
158.0000
21
590.0000
31
0.0
0
TEXT
8
DIMENSION
10
165.0000
20
570.0000
30
0.0
40
3.2000
1
L_lap >= 35d
0
LINE
8
THEP_CHU
10
230.0000
20
445.0000
30
0.0
11
230.0000
21
650.0000
31
0.0
0
LINE
8
THEP_CHU
10
235.0000
20
600.0000
30
0.0
11
235.0000
21
735.0000
31
0.0
0
LINE
8
DIMENSION
10
245.0000
20
600.0000
30
0.0
11
245.0000
21
650.0000
31
0.0
0
LINE
8
DIMENSION
10
241.0000
20
600.0000
30
0.0
11
249.0000
21
600.0000
31
0.0
0
LINE
8
DIMENSION
10
241.0000
20
650.0000
30
0.0
11
249.0000
21
650.0000
31
0.0
0
LINE
8
DIMENSION
10
245.0000
20
600.0000
30
0.0
11
247.0000
21
605.0000
31
0.0
0
LINE
8
DIMENSION
10
245.0000
20
600.0000
30
0.0
11
243.0000
21
605.0000
31
0.0
0
LINE
8
DIMENSION
10
245.0000
20
650.0000
30
0.0
11
247.0000
21
645.0000
31
0.0
0
LINE
8
DIMENSION
10
245.0000
20
650.0000
30
0.0
11
243.0000
21
645.0000
31
0.0
0
TEXT
8
DIMENSION
10
250.0000
20
625.0000
30
0.0
40
3.2000
1
L_lap >= 35d
0
LINE
8
DIMENSION
10
200.0000
20
570.0000
30
0.0
11
200.0000
21
625.0000
31
0.0
0
LINE
8
DIMENSION
10
196.0000
20
570.0000
30
0.0
11
204.0000
21
570.0000
31
0.0
0
LINE
8
DIMENSION
10
196.0000
20
625.0000
30
0.0
11
204.0000
21
625.0000
31
0.0
0
LINE
8
DIMENSION
10
200.0000
20
570.0000
30
0.0
11
202.0000
21
575.0000
31
0.0
0
LINE
8
DIMENSION
10
200.0000
20
570.0000
30
0.0
11
198.0000
21
575.0000
31
0.0
0
LINE
8
DIMENSION
10
200.0000
20
625.0000
30
0.0
11
202.0000
21
620.0000
31
0.0
0
LINE
8
DIMENSION
10
200.0000
20
625.0000
30
0.0
11
198.0000
21
620.0000
31
0.0
0
TEXT
8
DIMENSION
10
205.0000
20
597.5000
30
0.0
40
3.2000
1
Kho\U+1EA3ng c\U+00E1ch so le >= 1.3*L_lap
0
LINE
8
THEP_DAI
10
160.0000
20
470.0000
30
0.0
11
240.0000
21
470.0000
31
0.0
0
LINE
8
THEP_DAI
10
160.0000
20
488.0000
30
0.0
11
240.0000
21
488.0000
31
0.0
0
LINE
8
THEP_DAI
10
160.0000
20
506.0000
30
0.0
11
240.0000
21
506.0000
31
0.0
0
LINE
8
THEP_DAI
10
160.0000
20
524.0000
30
0.0
11
240.0000
21
524.0000
31
0.0
0
LINE
8
THEP_DAI
10
160.0000
20
542.0000
30
0.0
11
240.0000
21
542.0000
31
0.0
0
LINE
8
THEP_DAI
10
160.0000
20
551.0000
30
0.0
11
240.0000
21
551.0000
31
0.0
0
LINE
8
THEP_DAI
10
160.0000
20
560.0000
30
0.0
11
240.0000
21
560.0000
31
0.0
0
LINE
8
THEP_DAI
10
160.0000
20
569.0000
30
0.0
11
240.0000
21
569.0000
31
0.0
0
LINE
8
THEP_DAI
10
160.0000
20
578.0000
30
0.0
11
240.0000
21
578.0000
31
0.0
0
LINE
8
THEP_DAI
10
160.0000
20
587.0000
30
0.0
11
240.0000
21
587.0000
31
0.0
0
LINE
8
THEP_DAI
10
160.0000
20
596.0000
30
0.0
11
240.0000
21
596.0000
31
0.0
0
LINE
8
THEP_DAI
10
160.0000
20
605.0000
30
0.0
11
240.0000
21
605.0000
31
0.0
0
LINE
8
THEP_DAI
10
160.0000
20
614.0000
30
0.0
11
240.0000
21
614.0000
31
0.0
0
LINE
8
THEP_DAI
10
160.0000
20
623.0000
30
0.0
11
240.0000
21
623.0000
31
0.0
0
LINE
8
THEP_DAI
10
160.0000
20
632.0000
30
0.0
11
240.0000
21
632.0000
31
0.0
0
LINE
8
THEP_DAI
10
160.0000
20
641.0000
30
0.0
11
240.0000
21
641.0000
31
0.0
0
LINE
8
THEP_DAI
10
160.0000
20
650.0000
30
0.0
11
240.0000
21
650.0000
31
0.0
0
LINE
8
THEP_DAI
10
160.0000
20
659.0000
30
0.0
11
240.0000
21
659.0000
31
0.0
0
LINE
8
THEP_DAI
10
160.0000
20
668.0000
30
0.0
11
240.0000
21
668.0000
31
0.0
0
LINE
8
THEP_DAI
10
160.0000
20
686.0000
30
0.0
11
240.0000
21
686.0000
31
0.0
0
LINE
8
THEP_DAI
10
160.0000
20
704.0000
30
0.0
11
240.0000
21
704.0000
31
0.0
0
TEXT
8
THEP_DAI
10
140.0000
20
565.0000
30
0.0
40
3.5000
1
\U+0110ai d\U+00E0y: s <= 100mm
72
2
11
140.0000
21
565.0000
31
0.0
0
TEXT
8
TEXT
10
50.0000
20
440.0000
30
0.0
40
3.5000
1
- T\U+1EF7 l\U+1EC7 n\U+1ED1i c\U+1ED1t th\U+00E9p tr\U+00EAn c\U+00F9ng 1 m\U+1EB7t c\U+1EAFt: <= 50%.
0
TEXT
8
TEXT
10
50.0000
20
430.0000
30
0.0
40
3.5000
1
- \U+0110o\U+1EA1n so le gi\U+1EEFa hai v\U+1ECB tr\U+00ED n\U+1ED1i: >= 1.3 * L_lap (ho\U+1EB7c >= 500mm).
0
TEXT
8
TEXT
10
50.0000
20
420.0000
30
0.0
40
3.5000
1
- Trong \U+0111o\U+1EA1n n\U+1ED1i ch\U+1ED3ng c\U+1ED1t th\U+00E9p c\U+1ED9t, \U+0111ai ph\U+1EA3i b\U+1ED1 tr\U+00ED d\U+00E0y h\U+01A1n: s <= 100mm.
0
TEXT
8
TEXT_TITLE
10
300.0000
20
395.0000
30
0.0
40
6.0000
1
CHI TI\U+1EBET 2: QUY \U+0110\U+1ECANH V\U+00D9NG N\U+1ED0I C\U+1ED0T TH\U+00C9P D\U+1EA6M (BEAM SPLICE ZONES)
72
1
11
300.0000
21
395.0000
31
0.0
0
LINE
8
BE_TONG
10
70.0000
20
160.0000
30
0.0
11
120.0000
21
160.0000
31
0.0
0
LINE
8
BE_TONG
10
120.0000
20
160.0000
30
0.0
11
120.0000
21
340.0000
31
0.0
0
LINE
8
BE_TONG
10
120.0000
20
340.0000
30
0.0
11
70.0000
21
340.0000
31
0.0
0
LINE
8
BE_TONG
10
70.0000
20
340.0000
30
0.0
11
70.0000
21
160.0000
31
0.0
0
LINE
8
BE_TONG
10
280.0000
20
160.0000
30
0.0
11
330.0000
21
160.0000
31
0.0
0
LINE
8
BE_TONG
10
330.0000
20
160.0000
30
0.0
11
330.0000
21
340.0000
31
0.0
0
LINE
8
BE_TONG
10
330.0000
20
340.0000
30
0.0
11
280.0000
21
340.0000
31
0.0
0
LINE
8
BE_TONG
10
280.0000
20
340.0000
30
0.0
11
280.0000
21
160.0000
31
0.0
0
LINE
8
BE_TONG
10
490.0000
20
160.0000
30
0.0
11
540.0000
21
160.0000
31
0.0
0
LINE
8
BE_TONG
10
540.0000
20
160.0000
30
0.0
11
540.0000
21
340.0000
31
0.0
0
LINE
8
BE_TONG
10
540.0000
20
340.0000
30
0.0
11
490.0000
21
340.0000
31
0.0
0
LINE
8
BE_TONG
10
490.0000
20
340.0000
30
0.0
11
490.0000
21
160.0000
31
0.0
0
LINE
8
BE_TONG
10
70.0000
20
220.0000
30
0.0
11
540.0000
21
220.0000
31
0.0
0
LINE
8
BE_TONG
10
540.0000
20
220.0000
30
0.0
11
540.0000
21
280.0000
31
0.0
0
LINE
8
BE_TONG
10
540.0000
20
280.0000
30
0.0
11
70.0000
21
280.0000
31
0.0
0
LINE
8
BE_TONG
10
70.0000
20
280.0000
30
0.0
11
70.0000
21
220.0000
31
0.0
0
LINE
8
THEP_CHU
10
90.0000
20
268.0000
30
0.0
11
310.0000
21
268.0000
31
0.0
0
LINE
8
THEP_CHU
10
163.3333
20
262.0000
30
0.0
11
236.6667
21
262.0000
31
0.0
0
TEXT
8
TEXT_TITLE
10
200.0000
20
290.0000
30
0.0
40
4.0000
1
N\U+1ED0I TH\U+00C9P TR\U+00CAN: 1/3 GI\U+1EEEA NH\U+1ECAP (V\U+00D9NG N\U+00C9N)
72
1
11
200.0000
21
290.0000
31
0.0
0
LINE
8
DIMENSION
10
173.3333
20
300.0000
30
0.0
11
226.6667
21
300.0000
31
0.0
0
LINE
8
DIMENSION
10
173.3333
20
296.0000
30
0.0
11
173.3333
21
304.0000
31
0.0
0
LINE
8
DIMENSION
10
226.6667
20
296.0000
30
0.0
11
226.6667
21
304.0000
31
0.0
0
LINE
8
DIMENSION
10
173.3333
20
300.0000
30
0.0
11
178.3333
21
302.0000
31
0.0
0
LINE
8
DIMENSION
10
173.3333
20
300.0000
30
0.0
11
178.3333
21
298.0000
31
0.0
0
LINE
8
DIMENSION
10
226.6667
20
300.0000
30
0.0
11
221.6667
21
302.0000
31
0.0
0
LINE
8
DIMENSION
10
226.6667
20
300.0000
30
0.0
11
221.6667
21
298.0000
31
0.0
0
TEXT
8
DIMENSION
10
200.0000
20
303.0000
30
0.0
40
3.2000
1
V\U+00F9ng n\U+1ED1i th\U+00E9p TR\U+00CAN cho ph\U+00E9p
72
1
11
200.0000
21
303.0000
31
0.0
0
LINE
8
THEP_CHU
10
90.0000
20
232.0000
30
0.0
11
310.0000
21
232.0000
31
0.0
0
LINE
8
THEP_CHU
10
110.0000
20
238.0000
30
0.0
11
173.3333
21
238.0000
31
0.0
0
TEXT
8
TEXT_TITLE
10
146.6667
20
202.0000
30
0.0
40
4.0000
1
N\U+1ED0I TH\U+00C9P D\U+01AF\U+1EDAI: G\U+1EA6N G\U+1ED0I (<= L/4)
72
1
11
146.6667
21
202.0000
31
0.0
0
LINE
8
DIMENSION
10
120.0000
20
192.0000
30
0.0
11
173.3333
21
192.0000
31
0.0
0
LINE
8
DIMENSION
10
120.0000
20
188.0000
30
0.0
11
120.0000
21
196.0000
31
0.0
0
LINE
8
DIMENSION
10
173.3333
20
188.0000
30
0.0
11
173.3333
21
196.0000
31
0.0
0
LINE
8
DIMENSION
10
120.0000
20
192.0000
30
0.0
11
125.0000
21
194.0000
31
0.0
0
LINE
8
DIMENSION
10
120.0000
20
192.0000
30
0.0
11
125.0000
21
190.0000
31
0.0
0
LINE
8
DIMENSION
10
173.3333
20
192.0000
30
0.0
11
168.3333
21
194.0000
31
0.0
0
LINE
8
DIMENSION
10
173.3333
20
192.0000
30
0.0
11
168.3333
21
190.0000
31
0.0
0
TEXT
8
DIMENSION
10
146.6667
20
195.0000
30
0.0
40
3.2000
1
V\U+00F9ng n\U+1ED1i th\U+00E9p D\U+01AF\U+1EDAI
72
1
11
146.6667
21
195.0000
31
0.0
0
TEXT
8
VUNG_CAM_NOI
10
146.6667
20
252.0000
30
0.0
40
3.2000
1
[C\U+1EA4M N\U+1ED0I TH\U+00C9P TR\U+00CAN]
72
1
11
146.6667
21
252.0000
31
0.0
0
TEXT
8
VUNG_CAM_NOI
10
200.0000
20
248.0000
30
0.0
40
3.2000
1
[C\U+1EA4M N\U+1ED0I TH\U+00C9P D\U+01AF\U+1EDAI]
72
1
11
200.0000
21
248.0000
31
0.0
0
TEXT
8
VUNG_CAM_NOI
10
253.3333
20
252.0000
30
0.0
40
3.2000
1
[C\U+1EA4M N\U+1ED0I TH\U+00C9P TR\U+00CAN]
72
1
11
253.3333
21
252.0000
31
0.0
0
LINE
8
DIMENSION
10
120.0000
20
175.0000
30
0.0
11
280.0000
21
175.0000
31
0.0
0
LINE
8
DIMENSION
10
120.0000
20
171.0000
30
0.0
11
120.0000
21
179.0000
31
0.0
0
LINE
8
DIMENSION
10
280.0000
20
171.0000
30
0.0
11
280.0000
21
179.0000
31
0.0
0
LINE
8
DIMENSION
10
120.0000
20
175.0000
30
0.0
11
125.0000
21
177.0000
31
0.0
0
LINE
8
DIMENSION
10
120.0000
20
175.0000
30
0.0
11
125.0000
21
173.0000
31
0.0
0
LINE
8
DIMENSION
10
280.0000
20
175.0000
30
0.0
11
275.0000
21
177.0000
31
0.0
0
LINE
8
DIMENSION
10
280.0000
20
175.0000
30
0.0
11
275.0000
21
173.0000
31
0.0
0
TEXT
8
DIMENSION
10
200.0000
20
178.0000
30
0.0
40
3.2000
1
Nh\U+1ECBp th\U+00F4ng th\U+1EE7y L_o
72
1
11
200.0000
21
178.0000
31
0.0
0
TEXT
8
TEXT
10
50.0000
20
130.0000
30
0.0
40
3.5000
1
- Th\U+00E9p l\U+1EDBp TR\U+00CAN: Ch\U+1ECBu m\U+00F4-men \U+00E2m l\U+1EDBn t\U+1EA1i g\U+1ED1i -> C\U+1EA4M N\U+1ED0I trong ph\U+1EA1m vi L/3 t\U+00EDnh t\U+1EEB m\U+00E9p g\U+1ED1i.
0
TEXT
8
TEXT
10
50.0000
20
120.0000
30
0.0
40
3.5000
1
  V\U+1ECB tr\U+00ED n\U+1ED1i cho ph\U+00E9p: Trong kho\U+1EA3ng 1/3 gi\U+1EEFa nh\U+1ECBp d\U+1EA7m.
0
TEXT
8
TEXT
10
50.0000
20
110.0000
30
0.0
40
3.5000
1
- Th\U+00E9p l\U+1EDBp D\U+01AF\U+1EDAI: Ch\U+1ECBu m\U+00F4-men d\U+01B0\U+01A1ng l\U+1EDBn \U+1EDF gi\U+1EEFa nh\U+1ECBp -> C\U+1EA4M N\U+1ED0I trong ph\U+1EA1m vi 1/3 gi\U+1EEFa nh\U+1ECBp.
0
TEXT
8
TEXT
10
50.0000
20
100.0000
30
0.0
40
3.5000
1
  V\U+1ECB tr\U+00ED n\U+1ED1i cho ph\U+00E9p: V\U+00F9ng g\U+1EA7n g\U+1ED1i t\U+1EF1a (c\U+00E1ch m\U+00E9p g\U+1ED1i t\U+1EF1a <= L/4).
0
TEXT
8
TEXT
10
50.0000
20
90.0000
30
0.0
40
3.5000
1
- Chi\U+1EC1u d\U+00E0i \U+0111o\U+1EA1n n\U+1ED1i ch\U+1ED3ng: Tra b\U+1EA3ng theo c\U+1EA5p \U+0111\U+1ED9 b\U+1EC1n b\U+00EA t\U+00F4ng v\U+00E0 nh\U+00F3m c\U+1ED1t th\U+00E9p.
0
TEXT
8
TEXT
10
50.0000
20
80.0000
30
0.0
40
3.5000
1
- T\U+1EA1i v\U+1ECB tr\U+00ED n\U+1ED1i ch\U+1ED3ng d\U+1EA7m, \U+0111ai d\U+1EA7m ph\U+1EA3i b\U+1ED1 tr\U+00ED t\U+0103ng c\U+01B0\U+1EDDng: b\U+01B0\U+1EDBc \U+0111ai s <= 100mm.
0
TEXT
8
TEXT_TITLE
10
930.0000
20
762.0000
30
0.0
40
6.0000
1
CHI TI\U+1EBET 3: NEO C\U+1ED0T TH\U+00C9P D\U+1EA6M V\U+00C0O C\U+1ED8T BI\U+00CAN (BEAM-COLUMN ANCHORAGE)
72
1
11
930.0000
21
762.0000
31
0.0
0
LINE
8
BE_TONG
10
660.0000
20
520.0000
30
0.0
11
800.0000
21
520.0000
31
0.0
0
LINE
8
BE_TONG
10
800.0000
20
520.0000
30
0.0
11
800.0000
21
740.0000
31
0.0
0
LINE
8
BE_TONG
10
800.0000
20
740.0000
30
0.0
11
660.0000
21
740.0000
31
0.0
0
LINE
8
BE_TONG
10
660.0000
20
740.0000
30
0.0
11
660.0000
21
520.0000
31
0.0
0
TEXT
8
TEXT
10
730.0000
20
748.0000
30
0.0
40
4.0000
1
C\U+1ED8T BI\U+00CAN
72
1
11
730.0000
21
748.0000
31
0.0
0
LINE
8
BE_TONG
10
800.0000
20
570.0000
30
0.0
11
1020.0000
21
570.0000
31
0.0
0
LINE
8
BE_TONG
10
1020.0000
20
570.0000
30
0.0
11
1020.0000
21
670.0000
31
0.0
0
LINE
8
BE_TONG
10
1020.0000
20
670.0000
30
0.0
11
800.0000
21
670.0000
31
0.0
0
LINE
8
BE_TONG
10
800.0000
20
670.0000
30
0.0
11
800.0000
21
570.0000
31
0.0
0
TEXT
8
TEXT
10
910.0000
20
678.0000
30
0.0
40
4.0000
1
D\U+1EA6M
72
1
11
910.0000
21
678.0000
31
0.0
0
LINE
8
THEP_CHU
10
1020.0000
20
652.0000
30
0.0
11
685.0000
21
652.0000
31
0.0
0
LINE
8
THEP_CHU
10
685.0000
20
652.0000
30
0.0
11
685.0000
21
580.0000
31
0.0
0
LINE
8
DIMENSION
10
800.0000
20
667.0000
30
0.0
11
685.0000
21
667.0000
31
0.0
0
LINE
8
DIMENSION
10
800.0000
20
663.0000
30
0.0
11
800.0000
21
671.0000
31
0.0
0
LINE
8
DIMENSION
10
685.0000
20
663.0000
30
0.0
11
685.0000
21
671.0000
31
0.0
0
LINE
8
DIMENSION
10
800.0000
20
667.0000
30
0.0
11
805.0000
21
669.0000
31
0.0
0
LINE
8
DIMENSION
10
800.0000
20
667.0000
30
0.0
11
805.0000
21
665.0000
31
0.0
0
LINE
8
DIMENSION
10
685.0000
20
667.0000
30
0.0
11
680.0000
21
669.0000
31
0.0
0
LINE
8
DIMENSION
10
685.0000
20
667.0000
30
0.0
11
680.0000
21
665.0000
31
0.0
0
TEXT
8
DIMENSION
10
742.5000
20
670.0000
30
0.0
40
3.2000
1
\U+0110o\U+1EA1n th\U+1EB3ng >= 0.4*L_an
72
1
11
742.5000
21
670.0000
31
0.0
0
LINE
8
DIMENSION
10
670.0000
20
652.0000
30
0.0
11
670.0000
21
580.0000
31
0.0
0
LINE
8
DIMENSION
10
666.0000
20
652.0000
30
0.0
11
674.0000
21
652.0000
31
0.0
0
LINE
8
DIMENSION
10
666.0000
20
580.0000
30
0.0
11
674.0000
21
580.0000
31
0.0
0
LINE
8
DIMENSION
10
670.0000
20
652.0000
30
0.0
11
672.0000
21
657.0000
31
0.0
0
LINE
8
DIMENSION
10
670.0000
20
652.0000
30
0.0
11
668.0000
21
657.0000
31
0.0
0
LINE
8
DIMENSION
10
670.0000
20
580.0000
30
0.0
11
672.0000
21
575.0000
31
0.0
0
LINE
8
DIMENSION
10
670.0000
20
580.0000
30
0.0
11
668.0000
21
575.0000
31
0.0
0
TEXT
8
DIMENSION
10
675.0000
20
616.0000
30
0.0
40
3.2000
1
M\U+00F3c u\U+1ED1n >= 12d
0
TEXT
8
THEP_CHU
10
695.0000
20
622.0000
30
0.0
40
3.5000
1
T\U+1ED5ng chi\U+1EC1u d\U+00E0i neo >= L_an (TCVN 5574)
0
LINE
8
THEP_CHU
10
1020.0000
20
588.0000
30
0.0
11
695.0000
21
588.0000
31
0.0
0
LINE
8
THEP_CHU
10
695.0000
20
588.0000
30
0.0
11
695.0000
21
653.0000
31
0.0
0
LINE
8
DIMENSION
10
790.0000
20
588.0000
30
0.0
11
790.0000
21
653.0000
31
0.0
0
LINE
8
DIMENSION
10
786.0000
20
588.0000
30
0.0
11
794.0000
21
588.0000
31
0.0
0
LINE
8
DIMENSION
10
786.0000
20
653.0000
30
0.0
11
794.0000
21
653.0000
31
0.0
0
LINE
8
DIMENSION
10
790.0000
20
588.0000
30
0.0
11
792.0000
21
593.0000
31
0.0
0
LINE
8
DIMENSION
10
790.0000
20
588.0000
30
0.0
11
788.0000
21
593.0000
31
0.0
0
LINE
8
DIMENSION
10
790.0000
20
653.0000
30
0.0
11
792.0000
21
648.0000
31
0.0
0
LINE
8
DIMENSION
10
790.0000
20
653.0000
30
0.0
11
788.0000
21
648.0000
31
0.0
0
TEXT
8
DIMENSION
10
795.0000
20
620.5000
30
0.0
40
3.2000
1
B\U+1EBB l\U+00EAn >= 12d
0
LINE
8
THEP_DAI
10
675.0000
20
575.0000
30
0.0
11
785.0000
21
575.0000
31
0.0
0
LINE
8
THEP_DAI
10
675.0000
20
593.0000
30
0.0
11
785.0000
21
593.0000
31
0.0
0
LINE
8
THEP_DAI
10
675.0000
20
611.0000
30
0.0
11
785.0000
21
611.0000
31
0.0
0
LINE
8
THEP_DAI
10
675.0000
20
629.0000
30
0.0
11
785.0000
21
629.0000
31
0.0
0
LINE
8
THEP_DAI
10
675.0000
20
647.0000
30
0.0
11
785.0000
21
647.0000
31
0.0
0
LINE
8
THEP_DAI
10
675.0000
20
665.0000
30
0.0
11
785.0000
21
665.0000
31
0.0
0
TEXT
8
THEP_DAI
10
815.0000
20
545.0000
30
0.0
40
3.5000
1
\U+0110ai trong n\U+00FAt khung: B\U+1ED1 tr\U+00ED \U+0111\U+1EA7y \U+0111\U+1EE7 theo t\U+00EDnh to\U+00E1n.
0
TEXT
8
TEXT_TITLE
10
930.0000
20
465.0000
30
0.0
40
5.5000
1
CHI TI\U+1EBET 4: QUY C\U+00C1CH U\U+1ED0N M\U+00D3C V\U+00C0 \U+0110AI KH\U+00C1NG CH\U+1EA4N
72
1
11
930.0000
21
465.0000
31
0.0
0
LINE
8
THEP_CHU
10
660.0000
20
380.0000
30
0.0
11
740.0000
21
380.0000
31
0.0
0
ARC
8
THEP_CHU
10
740.0000
20
392.0000
30
0.0
40
12.0000
50
270.0000
51
90.0000
0
LINE
8
THEP_CHU
10
740.0000
20
404.0000
30
0.0
11
710.0000
21
404.0000
31
0.0
0
TEXT
8
TEXT
10
700.0000
20
368.0000
30
0.0
40
3.5000
1
M\U+00F3c ch\U+1EEF U 180\U+00B0 (CB240-T):
72
1
11
700.0000
21
368.0000
31
0.0
0
TEXT
8
TEXT
10
700.0000
20
358.0000
30
0.0
40
3.0000
1
\U+0110o\U+1EA1n th\U+1EB3ng k\U+00E9o d\U+00E0i >= 2.5d (>= 50mm)
72
1
11
700.0000
21
358.0000
31
0.0
0
LINE
8
THEP_CHU
10
850.0000
20
380.0000
30
0.0
11
920.0000
21
380.0000
31
0.0
0
LINE
8
THEP_CHU
10
920.0000
20
380.0000
30
0.0
11
920.0000
21
340.0000
31
0.0
0
TEXT
8
TEXT
10
890.0000
20
368.0000
30
0.0
40
3.5000
1
M\U+00F3c vu\U+00F4ng 90\U+00B0 (CB300-V, CB400-V):
72
1
11
890.0000
21
368.0000
31
0.0
0
TEXT
8
TEXT
10
890.0000
20
358.0000
30
0.0
40
3.0000
1
\U+0110o\U+1EA1n th\U+1EB3ng sau kh\U+00FAc u\U+1ED1n >= 12d
72
1
11
890.0000
21
358.0000
31
0.0
0
LINE
8
THEP_DAI
10
1050.0000
20
360.0000
30
0.0
11
1110.0000
21
360.0000
31
0.0
0
LINE
8
THEP_DAI
10
1110.0000
20
360.0000
30
0.0
11
1110.0000
21
420.0000
31
0.0
0
LINE
8
THEP_DAI
10
1110.0000
20
420.0000
30
0.0
11
1050.0000
21
420.0000
31
0.0
0
LINE
8
THEP_DAI
10
1050.0000
20
420.0000
30
0.0
11
1050.0000
21
360.0000
31
0.0
0
LINE
8
THEP_DAI
10
1050.0000
20
420.0000
30
0.0
11
1072.0000
21
398.0000
31
0.0
0
LINE
8
THEP_DAI
10
1050.0000
20
405.0000
30
0.0
11
1072.0000
21
383.0000
31
0.0
0
TEXT
8
TEXT
10
1080.0000
20
348.0000
30
0.0
40
3.5000
1
M\U+00F3c \U+0111ai kh\U+00E1ng ch\U+1EA5n 135\U+00B0 (TCVN 9386):
72
1
11
1080.0000
21
348.0000
31
0.0
0
TEXT
8
TEXT
10
1080.0000
20
338.0000
30
0.0
40
3.0000
1
\U+0110o\U+1EA1n th\U+1EB3ng sau m\U+00F3c >= 10d ho\U+1EB7c >= 75mm
72
1
11
1080.0000
21
338.0000
31
0.0
0
TEXT
8
TEXT_TITLE
10
930.0000
20
295.0000
30
0.0
40
5.5000
1
B\U+1EA2NG TRA CHI\U+1EC0U D\U+00C0I NEO V\U+00C0 N\U+1ED0I C\U+1ED0T TH\U+00C9P (TCVN 5574:2018) - \U+0110\U+01A0N V\U+1ECA: MM
72
1
11
930.0000
21
295.0000
31
0.0
0
LINE
8
DIMENSION
10
640.0000
20
259.0000
30
0.0
11
1222.0000
21
259.0000
31
0.0
0
LINE
8
DIMENSION
10
1222.0000
20
259.0000
30
0.0
11
1222.0000
21
275.0000
31
0.0
0
LINE
8
DIMENSION
10
1222.0000
20
275.0000
30
0.0
11
640.0000
21
275.0000
31
0.0
0
LINE
8
DIMENSION
10
640.0000
20
275.0000
30
0.0
11
640.0000
21
259.0000
31
0.0
0
TEXT
8
TEXT_TITLE
10
675.0000
20
264.0000
30
0.0
40
3.5000
1
C\U+1EA5p BT
72
1
11
675.0000
21
264.0000
31
0.0
0
TEXT
8
TEXT_TITLE
10
740.0000
20
264.0000
30
0.0
40
3.5000
1
M\U+00E1c Th\U+00E9p
72
1
11
740.0000
21
264.0000
31
0.0
0
TEXT
8
TEXT_TITLE
10
825.0000
20
264.0000
30
0.0
40
3.5000
1
Tr\U+1EA1ng Th\U+00E1i \U+1EE8ng Su\U+1EA5t
72
1
11
825.0000
21
264.0000
31
0.0
0
TEXT
8
TEXT_TITLE
10
899.0000
20
264.0000
30
0.0
40
3.5000
1
d10
72
1
11
899.0000
21
264.0000
31
0.0
0
TEXT
8
TEXT_TITLE
10
937.0000
20
264.0000
30
0.0
40
3.5000
1
d12
72
1
11
937.0000
21
264.0000
31
0.0
0
TEXT
8
TEXT_TITLE
10
975.0000
20
264.0000
30
0.0
40
3.5000
1
d14
72
1
11
975.0000
21
264.0000
31
0.0
0
TEXT
8
TEXT_TITLE
10
1013.0000
20
264.0000
30
0.0
40
3.5000
1
d16
72
1
11
1013.0000
21
264.0000
31
0.0
0
TEXT
8
TEXT_TITLE
10
1051.0000
20
264.0000
30
0.0
40
3.5000
1
d18
72
1
11
1051.0000
21
264.0000
31
0.0
0
TEXT
8
TEXT_TITLE
10
1089.0000
20
264.0000
30
0.0
40
3.5000
1
d20
72
1
11
1089.0000
21
264.0000
31
0.0
0
TEXT
8
TEXT_TITLE
10
1127.0000
20
264.0000
30
0.0
40
3.5000
1
d22
72
1
11
1127.0000
21
264.0000
31
0.0
0
TEXT
8
TEXT_TITLE
10
1165.0000
20
264.0000
30
0.0
40
3.5000
1
d25
72
1
11
1165.0000
21
264.0000
31
0.0
0
TEXT
8
TEXT_TITLE
10
1203.0000
20
264.0000
30
0.0
40
3.5000
1
d28
72
1
11
1203.0000
21
264.0000
31
0.0
0
LINE
8
KHUNG_BAN_VE
10
640.0000
20
244.0000
30
0.0
11
1222.0000
21
244.0000
31
0.0
0
LINE
8
KHUNG_BAN_VE
10
1222.0000
20
244.0000
30
0.0
11
1222.0000
21
259.0000
31
0.0
0
LINE
8
KHUNG_BAN_VE
10
1222.0000
20
259.0000
30
0.0
11
640.0000
21
259.0000
31
0.0
0
LINE
8
KHUNG_BAN_VE
10
640.0000
20
259.0000
30
0.0
11
640.0000
21
244.0000
31
0.0
0
TEXT
8
TEXT
10
675.0000
20
248.0000
30
0.0
40
3.2000
1
B25 (M350)
72
1
11
675.0000
21
248.0000
31
0.0
0
TEXT
8
TEXT
10
740.0000
20
248.0000
30
0.0
40
3.2000
1
CB240-T
72
1
11
740.0000
21
248.0000
31
0.0
0
TEXT
8
TEXT
10
775.0000
20
248.0000
30
0.0
40
3.2000
1
Neo k\U+00E9o (c\U+00F3 m\U+00F3c)
0
TEXT
8
TEXT
10
899.0000
20
248.0000
30
0.0
40
3.2000
1
200
72
1
11
899.0000
21
248.0000
31
0.0
0
TEXT
8
TEXT
10
937.0000
20
248.0000
30
0.0
40
3.2000
1
240
72
1
11
937.0000
21
248.0000
31
0.0
0
TEXT
8
TEXT
10
975.0000
20
248.0000
30
0.0
40
3.2000
1
280
72
1
11
975.0000
21
248.0000
31
0.0
0
TEXT
8
TEXT
10
1013.0000
20
248.0000
30
0.0
40
3.2000
1
320
72
1
11
1013.0000
21
248.0000
31
0.0
0
TEXT
8
TEXT
10
1051.0000
20
248.0000
30
0.0
40
3.2000
1
360
72
1
11
1051.0000
21
248.0000
31
0.0
0
TEXT
8
TEXT
10
1089.0000
20
248.0000
30
0.0
40
3.2000
1
400
72
1
11
1089.0000
21
248.0000
31
0.0
0
TEXT
8
TEXT
10
1127.0000
20
248.0000
30
0.0
40
3.2000
1
440
72
1
11
1127.0000
21
248.0000
31
0.0
0
TEXT
8
TEXT
10
1165.0000
20
248.0000
30
0.0
40
3.2000
1
500
72
1
11
1165.0000
21
248.0000
31
0.0
0
TEXT
8
TEXT
10
1203.0000
20
248.0000
30
0.0
40
3.2000
1
560
72
1
11
1203.0000
21
248.0000
31
0.0
0
LINE
8
KHUNG_BAN_VE
10
640.0000
20
229.0000
30
0.0
11
1222.0000
21
229.0000
31
0.0
0
LINE
8
KHUNG_BAN_VE
10
1222.0000
20
229.0000
30
0.0
11
1222.0000
21
244.0000
31
0.0
0
LINE
8
KHUNG_BAN_VE
10
1222.0000
20
244.0000
30
0.0
11
640.0000
21
244.0000
31
0.0
0
LINE
8
KHUNG_BAN_VE
10
640.0000
20
244.0000
30
0.0
11
640.0000
21
229.0000
31
0.0
0
TEXT
8
TEXT
10
675.0000
20
233.0000
30
0.0
40
3.2000
1
B25 (M350)
72
1
11
675.0000
21
233.0000
31
0.0
0
TEXT
8
TEXT
10
740.0000
20
233.0000
30
0.0
40
3.2000
1
CB240-T
72
1
11
740.0000
21
233.0000
31
0.0
0
TEXT
8
TEXT
10
775.0000
20
233.0000
30
0.0
40
3.2000
1
N\U+1ED1i k\U+00E9o (<=50%)
0
TEXT
8
TEXT
10
899.0000
20
233.0000
30
0.0
40
3.2000
1
350
72
1
11
899.0000
21
233.0000
31
0.0
0
TEXT
8
TEXT
10
937.0000
20
233.0000
30
0.0
40
3.2000
1
420
72
1
11
937.0000
21
233.0000
31
0.0
0
TEXT
8
TEXT
10
975.0000
20
233.0000
30
0.0
40
3.2000
1
490
72
1
11
975.0000
21
233.0000
31
0.0
0
TEXT
8
TEXT
10
1013.0000
20
233.0000
30
0.0
40
3.2000
1
560
72
1
11
1013.0000
21
233.0000
31
0.0
0
TEXT
8
TEXT
10
1051.0000
20
233.0000
30
0.0
40
3.2000
1
630
72
1
11
1051.0000
21
233.0000
31
0.0
0
TEXT
8
TEXT
10
1089.0000
20
233.0000
30
0.0
40
3.2000
1
700
72
1
11
1089.0000
21
233.0000
31
0.0
0
TEXT
8
TEXT
10
1127.0000
20
233.0000
30
0.0
40
3.2000
1
770
72
1
11
1127.0000
21
233.0000
31
0.0
0
TEXT
8
TEXT
10
1165.0000
20
233.0000
30
0.0
40
3.2000
1
880
72
1
11
1165.0000
21
233.0000
31
0.0
0
TEXT
8
TEXT
10
1203.0000
20
233.0000
30
0.0
40
3.2000
1
980
72
1
11
1203.0000
21
233.0000
31
0.0
0
LINE
8
KHUNG_BAN_VE
10
640.0000
20
214.0000
30
0.0
11
1222.0000
21
214.0000
31
0.0
0
LINE
8
KHUNG_BAN_VE
10
1222.0000
20
214.0000
30
0.0
11
1222.0000
21
229.0000
31
0.0
0
LINE
8
KHUNG_BAN_VE
10
1222.0000
20
229.0000
30
0.0
11
640.0000
21
229.0000
31
0.0
0
LINE
8
KHUNG_BAN_VE
10
640.0000
20
229.0000
30
0.0
11
640.0000
21
214.0000
31
0.0
0
TEXT
8
TEXT
10
675.0000
20
218.0000
30
0.0
40
3.2000
1
B25 (M350)
72
1
11
675.0000
21
218.0000
31
0.0
0
TEXT
8
TEXT
10
740.0000
20
218.0000
30
0.0
40
3.2000
1
CB300-V
72
1
11
740.0000
21
218.0000
31
0.0
0
TEXT
8
TEXT
10
775.0000
20
218.0000
30
0.0
40
3.2000
1
Neo k\U+00E9o (th\U+1EB3ng)
0
TEXT
8
TEXT
10
899.0000
20
218.0000
30
0.0
40
3.2000
1
350
72
1
11
899.0000
21
218.0000
31
0.0
0
TEXT
8
TEXT
10
937.0000
20
218.0000
30
0.0
40
3.2000
1
420
72
1
11
937.0000
21
218.0000
31
0.0
0
TEXT
8
TEXT
10
975.0000
20
218.0000
30
0.0
40
3.2000
1
490
72
1
11
975.0000
21
218.0000
31
0.0
0
TEXT
8
TEXT
10
1013.0000
20
218.0000
30
0.0
40
3.2000
1
560
72
1
11
1013.0000
21
218.0000
31
0.0
0
TEXT
8
TEXT
10
1051.0000
20
218.0000
30
0.0
40
3.2000
1
630
72
1
11
1051.0000
21
218.0000
31
0.0
0
TEXT
8
TEXT
10
1089.0000
20
218.0000
30
0.0
40
3.2000
1
700
72
1
11
1089.0000
21
218.0000
31
0.0
0
TEXT
8
TEXT
10
1127.0000
20
218.0000
30
0.0
40
3.2000
1
770
72
1
11
1127.0000
21
218.0000
31
0.0
0
TEXT
8
TEXT
10
1165.0000
20
218.0000
30
0.0
40
3.2000
1
880
72
1
11
1165.0000
21
218.0000
31
0.0
0
TEXT
8
TEXT
10
1203.0000
20
218.0000
30
0.0
40
3.2000
1
980
72
1
11
1203.0000
21
218.0000
31
0.0
0
LINE
8
KHUNG_BAN_VE
10
640.0000
20
199.0000
30
0.0
11
1222.0000
21
199.0000
31
0.0
0
LINE
8
KHUNG_BAN_VE
10
1222.0000
20
199.0000
30
0.0
11
1222.0000
21
214.0000
31
0.0
0
LINE
8
KHUNG_BAN_VE
10
1222.0000
20
214.0000
30
0.0
11
640.0000
21
214.0000
31
0.0
0
LINE
8
KHUNG_BAN_VE
10
640.0000
20
214.0000
30
0.0
11
640.0000
21
199.0000
31
0.0
0
TEXT
8
TEXT
10
675.0000
20
203.0000
30
0.0
40
3.2000
1
B25 (M350)
72
1
11
675.0000
21
203.0000
31
0.0
0
TEXT
8
TEXT
10
740.0000
20
203.0000
30
0.0
40
3.2000
1
CB300-V
72
1
11
740.0000
21
203.0000
31
0.0
0
TEXT
8
TEXT
10
775.0000
20
203.0000
30
0.0
40
3.2000
1
Neo k\U+00E9o (m\U+00F3c 90\U+00B0)
0
TEXT
8
TEXT
10
899.0000
20
203.0000
30
0.0
40
3.2000
1
250
72
1
11
899.0000
21
203.0000
31
0.0
0
TEXT
8
TEXT
10
937.0000
20
203.0000
30
0.0
40
3.2000
1
300
72
1
11
937.0000
21
203.0000
31
0.0
0
TEXT
8
TEXT
10
975.0000
20
203.0000
30
0.0
40
3.2000
1
350
72
1
11
975.0000
21
203.0000
31
0.0
0
TEXT
8
TEXT
10
1013.0000
20
203.0000
30
0.0
40
3.2000
1
400
72
1
11
1013.0000
21
203.0000
31
0.0
0
TEXT
8
TEXT
10
1051.0000
20
203.0000
30
0.0
40
3.2000
1
450
72
1
11
1051.0000
21
203.0000
31
0.0
0
TEXT
8
TEXT
10
1089.0000
20
203.0000
30
0.0
40
3.2000
1
500
72
1
11
1089.0000
21
203.0000
31
0.0
0
TEXT
8
TEXT
10
1127.0000
20
203.0000
30
0.0
40
3.2000
1
550
72
1
11
1127.0000
21
203.0000
31
0.0
0
TEXT
8
TEXT
10
1165.0000
20
203.0000
30
0.0
40
3.2000
1
630
72
1
11
1165.0000
21
203.0000
31
0.0
0
TEXT
8
TEXT
10
1203.0000
20
203.0000
30
0.0
40
3.2000
1
700
72
1
11
1203.0000
21
203.0000
31
0.0
0
LINE
8
KHUNG_BAN_VE
10
640.0000
20
184.0000
30
0.0
11
1222.0000
21
184.0000
31
0.0
0
LINE
8
KHUNG_BAN_VE
10
1222.0000
20
184.0000
30
0.0
11
1222.0000
21
199.0000
31
0.0
0
LINE
8
KHUNG_BAN_VE
10
1222.0000
20
199.0000
30
0.0
11
640.0000
21
199.0000
31
0.0
0
LINE
8
KHUNG_BAN_VE
10
640.0000
20
199.0000
30
0.0
11
640.0000
21
184.0000
31
0.0
0
TEXT
8
TEXT
10
675.0000
20
188.0000
30
0.0
40
3.2000
1
B25 (M350)
72
1
11
675.0000
21
188.0000
31
0.0
0
TEXT
8
TEXT
10
740.0000
20
188.0000
30
0.0
40
3.2000
1
CB300-V
72
1
11
740.0000
21
188.0000
31
0.0
0
TEXT
8
TEXT
10
775.0000
20
188.0000
30
0.0
40
3.2000
1
N\U+1ED1i k\U+00E9o (<=50%)
0
TEXT
8
TEXT
10
899.0000
20
188.0000
30
0.0
40
3.2000
1
400
72
1
11
899.0000
21
188.0000
31
0.0
0
TEXT
8
TEXT
10
937.0000
20
188.0000
30
0.0
40
3.2000
1
480
72
1
11
937.0000
21
188.0000
31
0.0
0
TEXT
8
TEXT
10
975.0000
20
188.0000
30
0.0
40
3.2000
1
560
72
1
11
975.0000
21
188.0000
31
0.0
0
TEXT
8
TEXT
10
1013.0000
20
188.0000
30
0.0
40
3.2000
1
640
72
1
11
1013.0000
21
188.0000
31
0.0
0
TEXT
8
TEXT
10
1051.0000
20
188.0000
30
0.0
40
3.2000
1
720
72
1
11
1051.0000
21
188.0000
31
0.0
0
TEXT
8
TEXT
10
1089.0000
20
188.0000
30
0.0
40
3.2000
1
800
72
1
11
1089.0000
21
188.0000
31
0.0
0
TEXT
8
TEXT
10
1127.0000
20
188.0000
30
0.0
40
3.2000
1
880
72
1
11
1127.0000
21
188.0000
31
0.0
0
TEXT
8
TEXT
10
1165.0000
20
188.0000
30
0.0
40
3.2000
1
1000
72
1
11
1165.0000
21
188.0000
31
0.0
0
TEXT
8
TEXT
10
1203.0000
20
188.0000
30
0.0
40
3.2000
1
1120
72
1
11
1203.0000
21
188.0000
31
0.0
0
LINE
8
KHUNG_BAN_VE
10
640.0000
20
169.0000
30
0.0
11
1222.0000
21
169.0000
31
0.0
0
LINE
8
KHUNG_BAN_VE
10
1222.0000
20
169.0000
30
0.0
11
1222.0000
21
184.0000
31
0.0
0
LINE
8
KHUNG_BAN_VE
10
1222.0000
20
184.0000
30
0.0
11
640.0000
21
184.0000
31
0.0
0
LINE
8
KHUNG_BAN_VE
10
640.0000
20
184.0000
30
0.0
11
640.0000
21
169.0000
31
0.0
0
TEXT
8
TEXT
10
675.0000
20
173.0000
30
0.0
40
3.2000
1
B25 (M350)
72
1
11
675.0000
21
173.0000
31
0.0
0
TEXT
8
TEXT
10
740.0000
20
173.0000
30
0.0
40
3.2000
1
CB400-V
72
1
11
740.0000
21
173.0000
31
0.0
0
TEXT
8
TEXT
10
775.0000
20
173.0000
30
0.0
40
3.2000
1
Neo k\U+00E9o (th\U+1EB3ng)
0
TEXT
8
TEXT
10
899.0000
20
173.0000
30
0.0
40
3.2000
1
400
72
1
11
899.0000
21
173.0000
31
0.0
0
TEXT
8
TEXT
10
937.0000
20
173.0000
30
0.0
40
3.2000
1
480
72
1
11
937.0000
21
173.0000
31
0.0
0
TEXT
8
TEXT
10
975.0000
20
173.0000
30
0.0
40
3.2000
1
560
72
1
11
975.0000
21
173.0000
31
0.0
0
TEXT
8
TEXT
10
1013.0000
20
173.0000
30
0.0
40
3.2000
1
640
72
1
11
1013.0000
21
173.0000
31
0.0
0
TEXT
8
TEXT
10
1051.0000
20
173.0000
30
0.0
40
3.2000
1
720
72
1
11
1051.0000
21
173.0000
31
0.0
0
TEXT
8
TEXT
10
1089.0000
20
173.0000
30
0.0
40
3.2000
1
800
72
1
11
1089.0000
21
173.0000
31
0.0
0
TEXT
8
TEXT
10
1127.0000
20
173.0000
30
0.0
40
3.2000
1
880
72
1
11
1127.0000
21
173.0000
31
0.0
0
TEXT
8
TEXT
10
1165.0000
20
173.0000
30
0.0
40
3.2000
1
1000
72
1
11
1165.0000
21
173.0000
31
0.0
0
TEXT
8
TEXT
10
1203.0000
20
173.0000
30
0.0
40
3.2000
1
1120
72
1
11
1203.0000
21
173.0000
31
0.0
0
LINE
8
KHUNG_BAN_VE
10
640.0000
20
154.0000
30
0.0
11
1222.0000
21
154.0000
31
0.0
0
LINE
8
KHUNG_BAN_VE
10
1222.0000
20
154.0000
30
0.0
11
1222.0000
21
169.0000
31
0.0
0
LINE
8
KHUNG_BAN_VE
10
1222.0000
20
169.0000
30
0.0
11
640.0000
21
169.0000
31
0.0
0
LINE
8
KHUNG_BAN_VE
10
640.0000
20
169.0000
30
0.0
11
640.0000
21
154.0000
31
0.0
0
TEXT
8
TEXT
10
675.0000
20
158.0000
30
0.0
40
3.2000
1
B25 (M350)
72
1
11
675.0000
21
158.0000
31
0.0
0
TEXT
8
TEXT
10
740.0000
20
158.0000
30
0.0
40
3.2000
1
CB400-V
72
1
11
740.0000
21
158.0000
31
0.0
0
TEXT
8
TEXT
10
775.0000
20
158.0000
30
0.0
40
3.2000
1
Neo k\U+00E9o (m\U+00F3c 90\U+00B0)
0
TEXT
8
TEXT
10
899.0000
20
158.0000
30
0.0
40
3.2000
1
300
72
1
11
899.0000
21
158.0000
31
0.0
0
TEXT
8
TEXT
10
937.0000
20
158.0000
30
0.0
40
3.2000
1
360
72
1
11
937.0000
21
158.0000
31
0.0
0
TEXT
8
TEXT
10
975.0000
20
158.0000
30
0.0
40
3.2000
1
420
72
1
11
975.0000
21
158.0000
31
0.0
0
TEXT
8
TEXT
10
1013.0000
20
158.0000
30
0.0
40
3.2000
1
480
72
1
11
1013.0000
21
158.0000
31
0.0
0
TEXT
8
TEXT
10
1051.0000
20
158.0000
30
0.0
40
3.2000
1
540
72
1
11
1051.0000
21
158.0000
31
0.0
0
TEXT
8
TEXT
10
1089.0000
20
158.0000
30
0.0
40
3.2000
1
600
72
1
11
1089.0000
21
158.0000
31
0.0
0
TEXT
8
TEXT
10
1127.0000
20
158.0000
30
0.0
40
3.2000
1
660
72
1
11
1127.0000
21
158.0000
31
0.0
0
TEXT
8
TEXT
10
1165.0000
20
158.0000
30
0.0
40
3.2000
1
750
72
1
11
1165.0000
21
158.0000
31
0.0
0
TEXT
8
TEXT
10
1203.0000
20
158.0000
30
0.0
40
3.2000
1
840
72
1
11
1203.0000
21
158.0000
31
0.0
0
LINE
8
KHUNG_BAN_VE
10
640.0000
20
139.0000
30
0.0
11
1222.0000
21
139.0000
31
0.0
0
LINE
8
KHUNG_BAN_VE
10
1222.0000
20
139.0000
30
0.0
11
1222.0000
21
154.0000
31
0.0
0
LINE
8
KHUNG_BAN_VE
10
1222.0000
20
154.0000
30
0.0
11
640.0000
21
154.0000
31
0.0
0
LINE
8
KHUNG_BAN_VE
10
640.0000
20
154.0000
30
0.0
11
640.0000
21
139.0000
31
0.0
0
TEXT
8
TEXT
10
675.0000
20
143.0000
30
0.0
40
3.2000
1
B25 (M350)
72
1
11
675.0000
21
143.0000
31
0.0
0
TEXT
8
TEXT
10
740.0000
20
143.0000
30
0.0
40
3.2000
1
CB400-V
72
1
11
740.0000
21
143.0000
31
0.0
0
TEXT
8
TEXT
10
775.0000
20
143.0000
30
0.0
40
3.2000
1
N\U+1ED1i k\U+00E9o (<=50%)
0
TEXT
8
TEXT
10
899.0000
20
143.0000
30
0.0
40
3.2000
1
450
72
1
11
899.0000
21
143.0000
31
0.0
0
TEXT
8
TEXT
10
937.0000
20
143.0000
30
0.0
40
3.2000
1
540
72
1
11
937.0000
21
143.0000
31
0.0
0
TEXT
8
TEXT
10
975.0000
20
143.0000
30
0.0
40
3.2000
1
630
72
1
11
975.0000
21
143.0000
31
0.0
0
TEXT
8
TEXT
10
1013.0000
20
143.0000
30
0.0
40
3.2000
1
720
72
1
11
1013.0000
21
143.0000
31
0.0
0
TEXT
8
TEXT
10
1051.0000
20
143.0000
30
0.0
40
3.2000
1
810
72
1
11
1051.0000
21
143.0000
31
0.0
0
TEXT
8
TEXT
10
1089.0000
20
143.0000
30
0.0
40
3.2000
1
900
72
1
11
1089.0000
21
143.0000
31
0.0
0
TEXT
8
TEXT
10
1127.0000
20
143.0000
30
0.0
40
3.2000
1
990
72
1
11
1127.0000
21
143.0000
31
0.0
0
TEXT
8
TEXT
10
1165.0000
20
143.0000
30
0.0
40
3.2000
1
1130
72
1
11
1165.0000
21
143.0000
31
0.0
0
TEXT
8
TEXT
10
1203.0000
20
143.0000
30
0.0
40
3.2000
1
1260
72
1
11
1203.0000
21
143.0000
31
0.0
0
LINE
8
KHUNG_BAN_VE
10
640.0000
20
124.0000
30
0.0
11
1222.0000
21
124.0000
31
0.0
0
LINE
8
KHUNG_BAN_VE
10
1222.0000
20
124.0000
30
0.0
11
1222.0000
21
139.0000
31
0.0
0
LINE
8
KHUNG_BAN_VE
10
1222.0000
20
139.0000
30
0.0
11
640.0000
21
139.0000
31
0.0
0
LINE
8
KHUNG_BAN_VE
10
640.0000
20
139.0000
30
0.0
11
640.0000
21
124.0000
31
0.0
0
TEXT
8
TEXT
10
675.0000
20
128.0000
30
0.0
40
3.2000
1
B25 (M350)
72
1
11
675.0000
21
128.0000
31
0.0
0
TEXT
8
TEXT
10
740.0000
20
128.0000
30
0.0
40
3.2000
1
CB400-V
72
1
11
740.0000
21
128.0000
31
0.0
0
TEXT
8
TEXT
10
775.0000
20
128.0000
30
0.0
40
3.2000
1
N\U+1ED1i n\U+00E9n
0
TEXT
8
TEXT
10
899.0000
20
128.0000
30
0.0
40
3.2000
1
350
72
1
11
899.0000
21
128.0000
31
0.0
0
TEXT
8
TEXT
10
937.0000
20
128.0000
30
0.0
40
3.2000
1
420
72
1
11
937.0000
21
128.0000
31
0.0
0
TEXT
8
TEXT
10
975.0000
20
128.0000
30
0.0
40
3.2000
1
490
72
1
11
975.0000
21
128.0000
31
0.0
0
TEXT
8
TEXT
10
1013.0000
20
128.0000
30
0.0
40
3.2000
1
560
72
1
11
1013.0000
21
128.0000
31
0.0
0
TEXT
8
TEXT
10
1051.0000
20
128.0000
30
0.0
40
3.2000
1
630
72
1
11
1051.0000
21
128.0000
31
0.0
0
TEXT
8
TEXT
10
1089.0000
20
128.0000
30
0.0
40
3.2000
1
700
72
1
11
1089.0000
21
128.0000
31
0.0
0
TEXT
8
TEXT
10
1127.0000
20
128.0000
30
0.0
40
3.2000
1
770
72
1
11
1127.0000
21
128.0000
31
0.0
0
TEXT
8
TEXT
10
1165.0000
20
128.0000
30
0.0
40
3.2000
1
880
72
1
11
1165.0000
21
128.0000
31
0.0
0
TEXT
8
TEXT
10
1203.0000
20
128.0000
30
0.0
40
3.2000
1
980
72
1
11
1203.0000
21
128.0000
31
0.0
0
LINE
8
KHUNG_BAN_VE
10
640.0000
20
109.0000
30
0.0
11
1222.0000
21
109.0000
31
0.0
0
LINE
8
KHUNG_BAN_VE
10
1222.0000
20
109.0000
30
0.0
11
1222.0000
21
124.0000
31
0.0
0
LINE
8
KHUNG_BAN_VE
10
1222.0000
20
124.0000
30
0.0
11
640.0000
21
124.0000
31
0.0
0
LINE
8
KHUNG_BAN_VE
10
640.0000
20
124.0000
30
0.0
11
640.0000
21
109.0000
31
0.0
0
TEXT
8
TEXT
10
675.0000
20
113.0000
30
0.0
40
3.2000
1
B30 (M400)
72
1
11
675.0000
21
113.0000
31
0.0
0
TEXT
8
TEXT
10
740.0000
20
113.0000
30
0.0
40
3.2000
1
CB400-V
72
1
11
740.0000
21
113.0000
31
0.0
0
TEXT
8
TEXT
10
775.0000
20
113.0000
30
0.0
40
3.2000
1
Neo k\U+00E9o (m\U+00F3c 90\U+00B0)
0
TEXT
8
TEXT
10
899.0000
20
113.0000
30
0.0
40
3.2000
1
250
72
1
11
899.0000
21
113.0000
31
0.0
0
TEXT
8
TEXT
10
937.0000
20
113.0000
30
0.0
40
3.2000
1
300
72
1
11
937.0000
21
113.0000
31
0.0
0
TEXT
8
TEXT
10
975.0000
20
113.0000
30
0.0
40
3.2000
1
350
72
1
11
975.0000
21
113.0000
31
0.0
0
TEXT
8
TEXT
10
1013.0000
20
113.0000
30
0.0
40
3.2000
1
400
72
1
11
1013.0000
21
113.0000
31
0.0
0
TEXT
8
TEXT
10
1051.0000
20
113.0000
30
0.0
40
3.2000
1
450
72
1
11
1051.0000
21
113.0000
31
0.0
0
TEXT
8
TEXT
10
1089.0000
20
113.0000
30
0.0
40
3.2000
1
500
72
1
11
1089.0000
21
113.0000
31
0.0
0
TEXT
8
TEXT
10
1127.0000
20
113.0000
30
0.0
40
3.2000
1
550
72
1
11
1127.0000
21
113.0000
31
0.0
0
TEXT
8
TEXT
10
1165.0000
20
113.0000
30
0.0
40
3.2000
1
630
72
1
11
1165.0000
21
113.0000
31
0.0
0
TEXT
8
TEXT
10
1203.0000
20
113.0000
30
0.0
40
3.2000
1
700
72
1
11
1203.0000
21
113.0000
31
0.0
0
LINE
8
KHUNG_BAN_VE
10
640.0000
20
94.0000
30
0.0
11
1222.0000
21
94.0000
31
0.0
0
LINE
8
KHUNG_BAN_VE
10
1222.0000
20
94.0000
30
0.0
11
1222.0000
21
109.0000
31
0.0
0
LINE
8
KHUNG_BAN_VE
10
1222.0000
20
109.0000
30
0.0
11
640.0000
21
109.0000
31
0.0
0
LINE
8
KHUNG_BAN_VE
10
640.0000
20
109.0000
30
0.0
11
640.0000
21
94.0000
31
0.0
0
TEXT
8
TEXT
10
675.0000
20
98.0000
30
0.0
40
3.2000
1
B30 (M400)
72
1
11
675.0000
21
98.0000
31
0.0
0
TEXT
8
TEXT
10
740.0000
20
98.0000
30
0.0
40
3.2000
1
CB400-V
72
1
11
740.0000
21
98.0000
31
0.0
0
TEXT
8
TEXT
10
775.0000
20
98.0000
30
0.0
40
3.2000
1
N\U+1ED1i k\U+00E9o (<=50%)
0
TEXT
8
TEXT
10
899.0000
20
98.0000
30
0.0
40
3.2000
1
400
72
1
11
899.0000
21
98.0000
31
0.0
0
TEXT
8
TEXT
10
937.0000
20
98.0000
30
0.0
40
3.2000
1
480
72
1
11
937.0000
21
98.0000
31
0.0
0
TEXT
8
TEXT
10
975.0000
20
98.0000
30
0.0
40
3.2000
1
560
72
1
11
975.0000
21
98.0000
31
0.0
0
TEXT
8
TEXT
10
1013.0000
20
98.0000
30
0.0
40
3.2000
1
640
72
1
11
1013.0000
21
98.0000
31
0.0
0
TEXT
8
TEXT
10
1051.0000
20
98.0000
30
0.0
40
3.2000
1
720
72
1
11
1051.0000
21
98.0000
31
0.0
0
TEXT
8
TEXT
10
1089.0000
20
98.0000
30
0.0
40
3.2000
1
800
72
1
11
1089.0000
21
98.0000
31
0.0
0
TEXT
8
TEXT
10
1127.0000
20
98.0000
30
0.0
40
3.2000
1
880
72
1
11
1127.0000
21
98.0000
31
0.0
0
TEXT
8
TEXT
10
1165.0000
20
98.0000
30
0.0
40
3.2000
1
1000
72
1
11
1165.0000
21
98.0000
31
0.0
0
TEXT
8
TEXT
10
1203.0000
20
98.0000
30
0.0
40
3.2000
1
1120
72
1
11
1203.0000
21
98.0000
31
0.0
0
LINE
8
KHUNG_BAN_VE
10
640.0000
20
79.0000
30
0.0
11
1222.0000
21
79.0000
31
0.0
0
LINE
8
KHUNG_BAN_VE
10
1222.0000
20
79.0000
30
0.0
11
1222.0000
21
94.0000
31
0.0
0
LINE
8
KHUNG_BAN_VE
10
1222.0000
20
94.0000
30
0.0
11
640.0000
21
94.0000
31
0.0
0
LINE
8
KHUNG_BAN_VE
10
640.0000
20
94.0000
30
0.0
11
640.0000
21
79.0000
31
0.0
0
TEXT
8
TEXT
10
675.0000
20
83.0000
30
0.0
40
3.2000
1
B30 (M400)
72
1
11
675.0000
21
83.0000
31
0.0
0
TEXT
8
TEXT
10
740.0000
20
83.0000
30
0.0
40
3.2000
1
CB500-V
72
1
11
740.0000
21
83.0000
31
0.0
0
TEXT
8
TEXT
10
775.0000
20
83.0000
30
0.0
40
3.2000
1
N\U+1ED1i k\U+00E9o (<=50%)
0
TEXT
8
TEXT
10
899.0000
20
83.0000
30
0.0
40
3.2000
1
500
72
1
11
899.0000
21
83.0000
31
0.0
0
TEXT
8
TEXT
10
937.0000
20
83.0000
30
0.0
40
3.2000
1
600
72
1
11
937.0000
21
83.0000
31
0.0
0
TEXT
8
TEXT
10
975.0000
20
83.0000
30
0.0
40
3.2000
1
700
72
1
11
975.0000
21
83.0000
31
0.0
0
TEXT
8
TEXT
10
1013.0000
20
83.0000
30
0.0
40
3.2000
1
800
72
1
11
1013.0000
21
83.0000
31
0.0
0
TEXT
8
TEXT
10
1051.0000
20
83.0000
30
0.0
40
3.2000
1
900
72
1
11
1051.0000
21
83.0000
31
0.0
0
TEXT
8
TEXT
10
1089.0000
20
83.0000
30
0.0
40
3.2000
1
1000
72
1
11
1089.0000
21
83.0000
31
0.0
0
TEXT
8
TEXT
10
1127.0000
20
83.0000
30
0.0
40
3.2000
1
1100
72
1
11
1127.0000
21
83.0000
31
0.0
0
TEXT
8
TEXT
10
1165.0000
20
83.0000
30
0.0
40
3.2000
1
1250
72
1
11
1165.0000
21
83.0000
31
0.0
0
TEXT
8
TEXT
10
1203.0000
20
83.0000
30
0.0
40
3.2000
1
1400
72
1
11
1203.0000
21
83.0000
31
0.0
0
ENDSEC
0
EOF
