0
SECTION
2
HEADER
9
$ACADVER
1
AC1021
9
$DWGCODEPAGE
3
UTF-8
0
ENDSEC
0
SECTION
2
TABLES
0
TABLE
2
LAYER
70
10
0
LAYER
2
0
70
0
62
7
6
CONTINUOUS
0
LAYER
2
KHUNG_BAN_VE
70
0
62
7
6
CONTINUOUS
0
LAYER
2
BE_TONG
70
0
62
4
6
CONTINUOUS
0
LAYER
2
THEP_CHU
70
0
62
1
6
CONTINUOUS
0
LAYER
2
THEP_DAI
70
0
62
3
6
CONTINUOUS
0
LAYER
2
DIMENSION
70
0
62
2
6
CONTINUOUS
0
LAYER
2
TEXT
70
0
62
7
6
CONTINUOUS
0
LAYER
2
TEXT_TITLE
70
0
62
2
6
CONTINUOUS
0
LAYER
2
VUNG_CAM_NOI
70
0
62
6
6
CONTINUOUS
0
LAYER
2
HATCH_ZONE
70
0
62
8
6
CONTINUOUS
0
ENDTAB
0
ENDSEC
0
SECTION
2
ENTITIES
0
LINE
8
KHUNG_BAN_VE
10
20.0000
20
20.0000
30
0.0
11
1280.0000
21
20.0000
31
0.0
0
LINE
8
KHUNG_BAN_VE
10
1280.0000
20
20.0000
30
0.0
11
1280.0000
21
830.0000
31
0.0
0
LINE
8
KHUNG_BAN_VE
10
1280.0000
20
830.0000
30
0.0
11
20.0000
21
830.0000
31
0.0
0
LINE
8
KHUNG_BAN_VE
10
20.0000
20
830.0000
30
0.0
11
20.0000
21
20.0000
31
0.0
0
LINE
8
KHUNG_BAN_VE
10
25.0000
20
25.0000
30
0.0
11
1275.0000
21
25.0000
31
0.0
0
LINE
8
KHUNG_BAN_VE
10
1275.0000
20
25.0000
30
0.0
11
1275.0000
21
825.0000
31
0.0
0
LINE
8
KHUNG_BAN_VE
10
1275.0000
20
825.0000
30
0.0
11
25.0000
21
825.0000
31
0.0
0
LINE
8
KHUNG_BAN_VE
10
25.0000
20
825.0000
30
0.0
11
25.0000
21
25.0000
31
0.0
0
TEXT
8
TEXT_TITLE
10
650.0000
20
805.0000
30
0.0
40
10.0000
1
QUY ĐỊNH CẤU TẠO NEO, NỐI VÀ UỐN MÓC CỐT THÉP (TCVN 5574:2018 & TCVN 1651:2018)
72
1
11
650.0000
21
805.0000
31
0.0
0
TEXT
8
TEXT
10
650.0000
20
788.0000
30
0.0
40
5.0000
1
TIÊU CHUẨN THIẾT KẾ BÊ TÔNG CỐT THÉP HIỆN HÀNH VIỆT NAM - BẢN VẼ GHI CHÚ CHUNG (GENERAL NOTES)
72
1
11
650.0000
21
788.0000
31
0.0
0
LINE
8
KHUNG_BAN_VE
10
30.0000
20
778.0000
30
0.0
11
1270.0000
21
778.0000
31
0.0
0
TEXT
8
TEXT_TITLE
10
230.0000
20
762.0000
30
0.0
40
6.0000
1
CHI TIẾT 1: NỐI SO LE CỐT THÉP CỘT (TCVN 5574:2018)
72
1
11
230.0000
21
762.0000
31
0.0
0
LINE
8
BE_TONG
10
90.0000
20
440.0000
30
0.0
11
310.0000
21
440.0000
31
0.0
0
LINE
8
BE_TONG
10
310.0000
20
440.0000
30
0.0
11
310.0000
21
460.0000
31
0.0
0
LINE
8
BE_TONG
10
310.0000
20
460.0000
30
0.0
11
90.0000
21
460.0000
31
0.0
0
LINE
8
BE_TONG
10
90.0000
20
460.0000
30
0.0
11
90.0000
21
440.0000
31
0.0
0
TEXT
8
TEXT
10
80.0000
20
450.0000
30
0.0
40
4.0000
1
SÀN DƯỚI
72
2
11
80.0000
21
450.0000
31
0.0
0
LINE
8
BE_TONG
10
90.0000
20
720.0000
30
0.0
11
310.0000
21
720.0000
31
0.0
0
LINE
8
BE_TONG
10
310.0000
20
720.0000
30
0.0
11
310.0000
21
740.0000
31
0.0
0
LINE
8
BE_TONG
10
310.0000
20
740.0000
30
0.0
11
90.0000
21
740.0000
31
0.0
0
LINE
8
BE_TONG
10
90.0000
20
740.0000
30
0.0
11
90.0000
21
720.0000
31
0.0
0
TEXT
8
TEXT
10
80.0000
20
730.0000
30
0.0
40
4.0000
1
SÀN TRÊN
72
2
11
80.0000
21
730.0000
31
0.0
0
LINE
8
BE_TONG
10
150.0000
20
460.0000
30
0.0
11
150.0000
21
720.0000
31
0.0
0
LINE
8
BE_TONG
10
250.0000
20
460.0000
30
0.0
11
250.0000
21
720.0000
31
0.0
0
LINE
8
VUNG_CAM_NOI
10
130.0000
20
525.0000
30
0.0
11
138.0000
21
525.0000
31
0.0
0
LINE
8
VUNG_CAM_NOI
10
142.0000
20
525.0000
30
0.0
11
150.0000
21
525.0000
31
0.0
0
LINE
8
VUNG_CAM_NOI
10
154.0000
20
525.0000
30
0.0
11
162.0000
21
525.0000
31
0.0
0
LINE
8
VUNG_CAM_NOI
10
166.0000
20
525.0000
30
0.0
11
174.0000
21
525.0000
31
0.0
0
LINE
8
VUNG_CAM_NOI
10
178.0000
20
525.0000
30
0.0
11
186.0000
21
525.0000
31
0.0
0
LINE
8
VUNG_CAM_NOI
10
190.0000
20
525.0000
30
0.0
11
198.0000
21
525.0000
31
0.0
0
LINE
8
VUNG_CAM_NOI
10
202.0000
20
525.0000
30
0.0
11
210.0000
21
525.0000
31
0.0
0
LINE
8
VUNG_CAM_NOI
10
214.0000
20
525.0000
30
0.0
11
222.0000
21
525.0000
31
0.0
0
LINE
8
VUNG_CAM_NOI
10
226.0000
20
525.0000
30
0.0
11
234.0000
21
525.0000
31
0.0
0
LINE
8
VUNG_CAM_NOI
10
238.0000
20
525.0000
30
0.0
11
246.0000
21
525.0000
31
0.0
0
LINE
8
VUNG_CAM_NOI
10
250.0000
20
525.0000
30
0.0
11
258.0000
21
525.0000
31
0.0
0
LINE
8
VUNG_CAM_NOI
10
262.0000
20
525.0000
30
0.0
11
270.0000
21
525.0000
31
0.0
0
LINE
8
VUNG_CAM_NOI
10
130.0000
20
655.0000
30
0.0
11
138.0000
21
655.0000
31
0.0
0
LINE
8
VUNG_CAM_NOI
10
142.0000
20
655.0000
30
0.0
11
150.0000
21
655.0000
31
0.0
0
LINE
8
VUNG_CAM_NOI
10
154.0000
20
655.0000
30
0.0
11
162.0000
21
655.0000
31
0.0
0
LINE
8
VUNG_CAM_NOI
10
166.0000
20
655.0000
30
0.0
11
174.0000
21
655.0000
31
0.0
0
LINE
8
VUNG_CAM_NOI
10
178.0000
20
655.0000
30
0.0
11
186.0000
21
655.0000
31
0.0
0
LINE
8
VUNG_CAM_NOI
10
190.0000
20
655.0000
30
0.0
11
198.0000
21
655.0000
31
0.0
0
LINE
8
VUNG_CAM_NOI
10
202.0000
20
655.0000
30
0.0
11
210.0000
21
655.0000
31
0.0
0
LINE
8
VUNG_CAM_NOI
10
214.0000
20
655.0000
30
0.0
11
222.0000
21
655.0000
31
0.0
0
LINE
8
VUNG_CAM_NOI
10
226.0000
20
655.0000
30
0.0
11
234.0000
21
655.0000
31
0.0
0
LINE
8
VUNG_CAM_NOI
10
238.0000
20
655.0000
30
0.0
11
246.0000
21
655.0000
31
0.0
0
LINE
8
VUNG_CAM_NOI
10
250.0000
20
655.0000
30
0.0
11
258.0000
21
655.0000
31
0.0
0
LINE
8
VUNG_CAM_NOI
10
262.0000
20
655.0000
30
0.0
11
270.0000
21
655.0000
31
0.0
0
TEXT
8
VUNG_CAM_NOI
10
275.0000
20
492.5000
30
0.0
40
3.5000
1
VÙNG CẤM NỐI (H/4)
0
TEXT
8
TEXT_TITLE
10
275.0000
20
590.0000
30
0.0
40
3.5000
1
VÙNG NỐI CHO PHÉP (H/2 GIỮA TẦNG)
0
TEXT
8
VUNG_CAM_NOI
10
275.0000
20
687.5000
30
0.0
40
3.5000
1
VÙNG CẤM NỐI (H/4)
0
LINE
8
THEP_CHU
10
170.0000
20
445.0000
30
0.0
11
170.0000
21
595.0000
31
0.0
0
LINE
8
THEP_CHU
10
175.0000
20
545.0000
30
0.0
11
175.0000
21
735.0000
31
0.0
0
LINE
8
DIMENSION
10
160.0000
20
545.0000
30
0.0
11
160.0000
21
595.0000
31
0.0
0
LINE
8
DIMENSION
10
156.0000
20
545.0000
30
0.0
11
164.0000
21
545.0000
31
0.0
0
LINE
8
DIMENSION
10
156.0000
20
595.0000
30
0.0
11
164.0000
21
595.0000
31
0.0
0
LINE
8
DIMENSION
10
160.0000
20
545.0000
30
0.0
11
162.0000
21
550.0000
31
0.0
0
LINE
8
DIMENSION
10
160.0000
20
545.0000
30
0.0
11
158.0000
21
550.0000
31
0.0
0
LINE
8
DIMENSION
10
160.0000
20
595.0000
30
0.0
11
162.0000
21
590.0000
31
0.0
0
LINE
8
DIMENSION
10
160.0000
20
595.0000
30
0.0
11
158.0000
21
590.0000
31
0.0
0
TEXT
8
DIMENSION
10
165.0000
20
570.0000
30
0.0
40
3.2000
1
L_lap >= 35d
0
LINE
8
THEP_CHU
10
230.0000
20
445.0000
30
0.0
11
230.0000
21
650.0000
31
0.0
0
LINE
8
THEP_CHU
10
235.0000
20
600.0000
30
0.0
11
235.0000
21
735.0000
31
0.0
0
LINE
8
DIMENSION
10
245.0000
20
600.0000
30
0.0
11
245.0000
21
650.0000
31
0.0
0
LINE
8
DIMENSION
10
241.0000
20
600.0000
30
0.0
11
249.0000
21
600.0000
31
0.0
0
LINE
8
DIMENSION
10
241.0000
20
650.0000
30
0.0
11
249.0000
21
650.0000
31
0.0
0
LINE
8
DIMENSION
10
245.0000
20
600.0000
30
0.0
11
247.0000
21
605.0000
31
0.0
0
LINE
8
DIMENSION
10
245.0000
20
600.0000
30
0.0
11
243.0000
21
605.0000
31
0.0
0
LINE
8
DIMENSION
10
245.0000
20
650.0000
30
0.0
11
247.0000
21
645.0000
31
0.0
0
LINE
8
DIMENSION
10
245.0000
20
650.0000
30
0.0
11
243.0000
21
645.0000
31
0.0
0
TEXT
8
DIMENSION
10
250.0000
20
625.0000
30
0.0
40
3.2000
1
L_lap >= 35d
0
LINE
8
DIMENSION
10
200.0000
20
570.0000
30
0.0
11
200.0000
21
625.0000
31
0.0
0
LINE
8
DIMENSION
10
196.0000
20
570.0000
30
0.0
11
204.0000
21
570.0000
31
0.0
0
LINE
8
DIMENSION
10
196.0000
20
625.0000
30
0.0
11
204.0000
21
625.0000
31
0.0
0
LINE
8
DIMENSION
10
200.0000
20
570.0000
30
0.0
11
202.0000
21
575.0000
31
0.0
0
LINE
8
DIMENSION
10
200.0000
20
570.0000
30
0.0
11
198.0000
21
575.0000
31
0.0
0
LINE
8
DIMENSION
10
200.0000
20
625.0000
30
0.0
11
202.0000
21
620.0000
31
0.0
0
LINE
8
DIMENSION
10
200.0000
20
625.0000
30
0.0
11
198.0000
21
620.0000
31
0.0
0
TEXT
8
DIMENSION
10
205.0000
20
597.5000
30
0.0
40
3.2000
1
Khoảng cách so le >= 1.3*L_lap
0
LINE
8
THEP_DAI
10
160.0000
20
470.0000
30
0.0
11
240.0000
21
470.0000
31
0.0
0
LINE
8
THEP_DAI
10
160.0000
20
488.0000
30
0.0
11
240.0000
21
488.0000
31
0.0
0
LINE
8
THEP_DAI
10
160.0000
20
506.0000
30
0.0
11
240.0000
21
506.0000
31
0.0
0
LINE
8
THEP_DAI
10
160.0000
20
524.0000
30
0.0
11
240.0000
21
524.0000
31
0.0
0
LINE
8
THEP_DAI
10
160.0000
20
542.0000
30
0.0
11
240.0000
21
542.0000
31
0.0
0
LINE
8
THEP_DAI
10
160.0000
20
551.0000
30
0.0
11
240.0000
21
551.0000
31
0.0
0
LINE
8
THEP_DAI
10
160.0000
20
560.0000
30
0.0
11
240.0000
21
560.0000
31
0.0
0
LINE
8
THEP_DAI
10
160.0000
20
569.0000
30
0.0
11
240.0000
21
569.0000
31
0.0
0
LINE
8
THEP_DAI
10
160.0000
20
578.0000
30
0.0
11
240.0000
21
578.0000
31
0.0
0
LINE
8
THEP_DAI
10
160.0000
20
587.0000
30
0.0
11
240.0000
21
587.0000
31
0.0
0
LINE
8
THEP_DAI
10
160.0000
20
596.0000
30
0.0
11
240.0000
21
596.0000
31
0.0
0
LINE
8
THEP_DAI
10
160.0000
20
605.0000
30
0.0
11
240.0000
21
605.0000
31
0.0
0
LINE
8
THEP_DAI
10
160.0000
20
614.0000
30
0.0
11
240.0000
21
614.0000
31
0.0
0
LINE
8
THEP_DAI
10
160.0000
20
623.0000
30
0.0
11
240.0000
21
623.0000
31
0.0
0
LINE
8
THEP_DAI
10
160.0000
20
632.0000
30
0.0
11
240.0000
21
632.0000
31
0.0
0
LINE
8
THEP_DAI
10
160.0000
20
641.0000
30
0.0
11
240.0000
21
641.0000
31
0.0
0
LINE
8
THEP_DAI
10
160.0000
20
650.0000
30
0.0
11
240.0000
21
650.0000
31
0.0
0
LINE
8
THEP_DAI
10
160.0000
20
659.0000
30
0.0
11
240.0000
21
659.0000
31
0.0
0
LINE
8
THEP_DAI
10
160.0000
20
668.0000
30
0.0
11
240.0000
21
668.0000
31
0.0
0
LINE
8
THEP_DAI
10
160.0000
20
686.0000
30
0.0
11
240.0000
21
686.0000
31
0.0
0
LINE
8
THEP_DAI
10
160.0000
20
704.0000
30
0.0
11
240.0000
21
704.0000
31
0.0
0
TEXT
8
THEP_DAI
10
140.0000
20
565.0000
30
0.0
40
3.5000
1
Đai dày: s <= 100mm
72
2
11
140.0000
21
565.0000
31
0.0
0
TEXT
8
TEXT
10
50.0000
20
440.0000
30
0.0
40
3.5000
1
- Tỷ lệ nối cốt thép trên cùng 1 mặt cắt: <= 50%.
0
TEXT
8
TEXT
10
50.0000
20
430.0000
30
0.0
40
3.5000
1
- Đoạn so le giữa hai vị trí nối: >= 1.3 * L_lap (hoặc >= 500mm).
0
TEXT
8
TEXT
10
50.0000
20
420.0000
30
0.0
40
3.5000
1
- Trong đoạn nối chồng cốt thép cột, đai phải bố trí dày hơn: s <= 100mm.
0
TEXT
8
TEXT_TITLE
10
300.0000
20
395.0000
30
0.0
40
6.0000
1
CHI TIẾT 2: QUY ĐỊNH VÙNG NỐI CỐT THÉP DẦM (BEAM SPLICE ZONES)
72
1
11
300.0000
21
395.0000
31
0.0
0
LINE
8
BE_TONG
10
70.0000
20
160.0000
30
0.0
11
120.0000
21
160.0000
31
0.0
0
LINE
8
BE_TONG
10
120.0000
20
160.0000
30
0.0
11
120.0000
21
340.0000
31
0.0
0
LINE
8
BE_TONG
10
120.0000
20
340.0000
30
0.0
11
70.0000
21
340.0000
31
0.0
0
LINE
8
BE_TONG
10
70.0000
20
340.0000
30
0.0
11
70.0000
21
160.0000
31
0.0
0
LINE
8
BE_TONG
10
280.0000
20
160.0000
30
0.0
11
330.0000
21
160.0000
31
0.0
0
LINE
8
BE_TONG
10
330.0000
20
160.0000
30
0.0
11
330.0000
21
340.0000
31
0.0
0
LINE
8
BE_TONG
10
330.0000
20
340.0000
30
0.0
11
280.0000
21
340.0000
31
0.0
0
LINE
8
BE_TONG
10
280.0000
20
340.0000
30
0.0
11
280.0000
21
160.0000
31
0.0
0
LINE
8
BE_TONG
10
490.0000
20
160.0000
30
0.0
11
540.0000
21
160.0000
31
0.0
0
LINE
8
BE_TONG
10
540.0000
20
160.0000
30
0.0
11
540.0000
21
340.0000
31
0.0
0
LINE
8
BE_TONG
10
540.0000
20
340.0000
30
0.0
11
490.0000
21
340.0000
31
0.0
0
LINE
8
BE_TONG
10
490.0000
20
340.0000
30
0.0
11
490.0000
21
160.0000
31
0.0
0
LINE
8
BE_TONG
10
70.0000
20
220.0000
30
0.0
11
540.0000
21
220.0000
31
0.0
0
LINE
8
BE_TONG
10
540.0000
20
220.0000
30
0.0
11
540.0000
21
280.0000
31
0.0
0
LINE
8
BE_TONG
10
540.0000
20
280.0000
30
0.0
11
70.0000
21
280.0000
31
0.0
0
LINE
8
BE_TONG
10
70.0000
20
280.0000
30
0.0
11
70.0000
21
220.0000
31
0.0
0
LINE
8
THEP_CHU
10
90.0000
20
268.0000
30
0.0
11
310.0000
21
268.0000
31
0.0
0
LINE
8
THEP_CHU
10
163.3333
20
262.0000
30
0.0
11
236.6667
21
262.0000
31
0.0
0
TEXT
8
TEXT_TITLE
10
200.0000
20
290.0000
30
0.0
40
4.0000
1
NỐI THÉP TRÊN: 1/3 GIỮA NHỊP (VÙNG NÉN)
72
1
11
200.0000
21
290.0000
31
0.0
0
LINE
8
DIMENSION
10
173.3333
20
300.0000
30
0.0
11
226.6667
21
300.0000
31
0.0
0
LINE
8
DIMENSION
10
173.3333
20
296.0000
30
0.0
11
173.3333
21
304.0000
31
0.0
0
LINE
8
DIMENSION
10
226.6667
20
296.0000
30
0.0
11
226.6667
21
304.0000
31
0.0
0
LINE
8
DIMENSION
10
173.3333
20
300.0000
30
0.0
11
178.3333
21
302.0000
31
0.0
0
LINE
8
DIMENSION
10
173.3333
20
300.0000
30
0.0
11
178.3333
21
298.0000
31
0.0
0
LINE
8
DIMENSION
10
226.6667
20
300.0000
30
0.0
11
221.6667
21
302.0000
31
0.0
0
LINE
8
DIMENSION
10
226.6667
20
300.0000
30
0.0
11
221.6667
21
298.0000
31
0.0
0
TEXT
8
DIMENSION
10
200.0000
20
303.0000
30
0.0
40
3.2000
1
Vùng nối thép TRÊN cho phép
72
1
11
200.0000
21
303.0000
31
0.0
0
LINE
8
THEP_CHU
10
90.0000
20
232.0000
30
0.0
11
310.0000
21
232.0000
31
0.0
0
LINE
8
THEP_CHU
10
110.0000
20
238.0000
30
0.0
11
173.3333
21
238.0000
31
0.0
0
TEXT
8
TEXT_TITLE
10
146.6667
20
202.0000
30
0.0
40
4.0000
1
NỐI THÉP DƯỚI: GẦN GỐI (<= L/4)
72
1
11
146.6667
21
202.0000
31
0.0
0
LINE
8
DIMENSION
10
120.0000
20
192.0000
30
0.0
11
173.3333
21
192.0000
31
0.0
0
LINE
8
DIMENSION
10
120.0000
20
188.0000
30
0.0
11
120.0000
21
196.0000
31
0.0
0
LINE
8
DIMENSION
10
173.3333
20
188.0000
30
0.0
11
173.3333
21
196.0000
31
0.0
0
LINE
8
DIMENSION
10
120.0000
20
192.0000
30
0.0
11
125.0000
21
194.0000
31
0.0
0
LINE
8
DIMENSION
10
120.0000
20
192.0000
30
0.0
11
125.0000
21
190.0000
31
0.0
0
LINE
8
DIMENSION
10
173.3333
20
192.0000
30
0.0
11
168.3333
21
194.0000
31
0.0
0
LINE
8
DIMENSION
10
173.3333
20
192.0000
30
0.0
11
168.3333
21
190.0000
31
0.0
0
TEXT
8
DIMENSION
10
146.6667
20
195.0000
30
0.0
40
3.2000
1
Vùng nối thép DƯỚI
72
1
11
146.6667
21
195.0000
31
0.0
0
TEXT
8
VUNG_CAM_NOI
10
146.6667
20
252.0000
30
0.0
40
3.2000
1
[CẤM NỐI THÉP TRÊN]
72
1
11
146.6667
21
252.0000
31
0.0
0
TEXT
8
VUNG_CAM_NOI
10
200.0000
20
248.0000
30
0.0
40
3.2000
1
[CẤM NỐI THÉP DƯỚI]
72
1
11
200.0000
21
248.0000
31
0.0
0
TEXT
8
VUNG_CAM_NOI
10
253.3333
20
252.0000
30
0.0
40
3.2000
1
[CẤM NỐI THÉP TRÊN]
72
1
11
253.3333
21
252.0000
31
0.0
0
LINE
8
DIMENSION
10
120.0000
20
175.0000
30
0.0
11
280.0000
21
175.0000
31
0.0
0
LINE
8
DIMENSION
10
120.0000
20
171.0000
30
0.0
11
120.0000
21
179.0000
31
0.0
0
LINE
8
DIMENSION
10
280.0000
20
171.0000
30
0.0
11
280.0000
21
179.0000
31
0.0
0
LINE
8
DIMENSION
10
120.0000
20
175.0000
30
0.0
11
125.0000
21
177.0000
31
0.0
0
LINE
8
DIMENSION
10
120.0000
20
175.0000
30
0.0
11
125.0000
21
173.0000
31
0.0
0
LINE
8
DIMENSION
10
280.0000
20
175.0000
30
0.0
11
275.0000
21
177.0000
31
0.0
0
LINE
8
DIMENSION
10
280.0000
20
175.0000
30
0.0
11
275.0000
21
173.0000
31
0.0
0
TEXT
8
DIMENSION
10
200.0000
20
178.0000
30
0.0
40
3.2000
1
Nhịp thông thủy L_o
72
1
11
200.0000
21
178.0000
31
0.0
0
TEXT
8
TEXT
10
50.0000
20
130.0000
30
0.0
40
3.5000
1
- Thép lớp TRÊN: Chịu mô-men âm lớn tại gối -> CẤM NỐI trong phạm vi L/3 tính từ mép gối.
0
TEXT
8
TEXT
10
50.0000
20
120.0000
30
0.0
40
3.5000
1
  Vị trí nối cho phép: Trong khoảng 1/3 giữa nhịp dầm.
0
TEXT
8
TEXT
10
50.0000
20
110.0000
30
0.0
40
3.5000
1
- Thép lớp DƯỚI: Chịu mô-men dương lớn ở giữa nhịp -> CẤM NỐI trong phạm vi 1/3 giữa nhịp.
0
TEXT
8
TEXT
10
50.0000
20
100.0000
30
0.0
40
3.5000
1
  Vị trí nối cho phép: Vùng gần gối tựa (cách mép gối tựa <= L/4).
0
TEXT
8
TEXT
10
50.0000
20
90.0000
30
0.0
40
3.5000
1
- Chiều dài đoạn nối chồng: Tra bảng theo cấp độ bền bê tông và nhóm cốt thép.
0
TEXT
8
TEXT
10
50.0000
20
80.0000
30
0.0
40
3.5000
1
- Tại vị trí nối chồng dầm, đai dầm phải bố trí tăng cường: bước đai s <= 100mm.
0
TEXT
8
TEXT_TITLE
10
930.0000
20
762.0000
30
0.0
40
6.0000
1
CHI TIẾT 3: NEO CỐT THÉP DẦM VÀO CỘT BIÊN (BEAM-COLUMN ANCHORAGE)
72
1
11
930.0000
21
762.0000
31
0.0
0
LINE
8
BE_TONG
10
660.0000
20
520.0000
30
0.0
11
800.0000
21
520.0000
31
0.0
0
LINE
8
BE_TONG
10
800.0000
20
520.0000
30
0.0
11
800.0000
21
740.0000
31
0.0
0
LINE
8
BE_TONG
10
800.0000
20
740.0000
30
0.0
11
660.0000
21
740.0000
31
0.0
0
LINE
8
BE_TONG
10
660.0000
20
740.0000
30
0.0
11
660.0000
21
520.0000
31
0.0
0
TEXT
8
TEXT
10
730.0000
20
748.0000
30
0.0
40
4.0000
1
CỘT BIÊN
72
1
11
730.0000
21
748.0000
31
0.0
0
LINE
8
BE_TONG
10
800.0000
20
570.0000
30
0.0
11
1020.0000
21
570.0000
31
0.0
0
LINE
8
BE_TONG
10
1020.0000
20
570.0000
30
0.0
11
1020.0000
21
670.0000
31
0.0
0
LINE
8
BE_TONG
10
1020.0000
20
670.0000
30
0.0
11
800.0000
21
670.0000
31
0.0
0
LINE
8
BE_TONG
10
800.0000
20
670.0000
30
0.0
11
800.0000
21
570.0000
31
0.0
0
TEXT
8
TEXT
10
910.0000
20
678.0000
30
0.0
40
4.0000
1
DẦM
72
1
11
910.0000
21
678.0000
31
0.0
0
LINE
8
THEP_CHU
10
1020.0000
20
652.0000
30
0.0
11
685.0000
21
652.0000
31
0.0
0
LINE
8
THEP_CHU
10
685.0000
20
652.0000
30
0.0
11
685.0000
21
580.0000
31
0.0
0
LINE
8
DIMENSION
10
800.0000
20
667.0000
30
0.0
11
685.0000
21
667.0000
31
0.0
0
LINE
8
DIMENSION
10
800.0000
20
663.0000
30
0.0
11
800.0000
21
671.0000
31
0.0
0
LINE
8
DIMENSION
10
685.0000
20
663.0000
30
0.0
11
685.0000
21
671.0000
31
0.0
0
LINE
8
DIMENSION
10
800.0000
20
667.0000
30
0.0
11
805.0000
21
669.0000
31
0.0
0
LINE
8
DIMENSION
10
800.0000
20
667.0000
30
0.0
11
805.0000
21
665.0000
31
0.0
0
LINE
8
DIMENSION
10
685.0000
20
667.0000
30
0.0
11
680.0000
21
669.0000
31
0.0
0
LINE
8
DIMENSION
10
685.0000
20
667.0000
30
0.0
11
680.0000
21
665.0000
31
0.0
0
TEXT
8
DIMENSION
10
742.5000
20
670.0000
30
0.0
40
3.2000
1
Đoạn thẳng >= 0.4*L_an
72
1
11
742.5000
21
670.0000
31
0.0
0
LINE
8
DIMENSION
10
670.0000
20
652.0000
30
0.0
11
670.0000
21
580.0000
31
0.0
0
LINE
8
DIMENSION
10
666.0000
20
652.0000
30
0.0
11
674.0000
21
652.0000
31
0.0
0
LINE
8
DIMENSION
10
666.0000
20
580.0000
30
0.0
11
674.0000
21
580.0000
31
0.0
0
LINE
8
DIMENSION
10
670.0000
20
652.0000
30
0.0
11
672.0000
21
657.0000
31
0.0
0
LINE
8
DIMENSION
10
670.0000
20
652.0000
30
0.0
11
668.0000
21
657.0000
31
0.0
0
LINE
8
DIMENSION
10
670.0000
20
580.0000
30
0.0
11
672.0000
21
575.0000
31
0.0
0
LINE
8
DIMENSION
10
670.0000
20
580.0000
30
0.0
11
668.0000
21
575.0000
31
0.0
0
TEXT
8
DIMENSION
10
675.0000
20
616.0000
30
0.0
40
3.2000
1
Móc uốn >= 12d
0
TEXT
8
THEP_CHU
10
695.0000
20
622.0000
30
0.0
40
3.5000
1
Tổng chiều dài neo >= L_an (TCVN 5574)
0
LINE
8
THEP_CHU
10
1020.0000
20
588.0000
30
0.0
11
695.0000
21
588.0000
31
0.0
0
LINE
8
THEP_CHU
10
695.0000
20
588.0000
30
0.0
11
695.0000
21
653.0000
31
0.0
0
LINE
8
DIMENSION
10
790.0000
20
588.0000
30
0.0
11
790.0000
21
653.0000
31
0.0
0
LINE
8
DIMENSION
10
786.0000
20
588.0000
30
0.0
11
794.0000
21
588.0000
31
0.0
0
LINE
8
DIMENSION
10
786.0000
20
653.0000
30
0.0
11
794.0000
21
653.0000
31
0.0
0
LINE
8
DIMENSION
10
790.0000
20
588.0000
30
0.0
11
792.0000
21
593.0000
31
0.0
0
LINE
8
DIMENSION
10
790.0000
20
588.0000
30
0.0
11
788.0000
21
593.0000
31
0.0
0
LINE
8
DIMENSION
10
790.0000
20
653.0000
30
0.0
11
792.0000
21
648.0000
31
0.0
0
LINE
8
DIMENSION
10
790.0000
20
653.0000
30
0.0
11
788.0000
21
648.0000
31
0.0
0
TEXT
8
DIMENSION
10
795.0000
20
620.5000
30
0.0
40
3.2000
1
Bẻ lên >= 12d
0
LINE
8
THEP_DAI
10
675.0000
20
575.0000
30
0.0
11
785.0000
21
575.0000
31
0.0
0
LINE
8
THEP_DAI
10
675.0000
20
593.0000
30
0.0
11
785.0000
21
593.0000
31
0.0
0
LINE
8
THEP_DAI
10
675.0000
20
611.0000
30
0.0
11
785.0000
21
611.0000
31
0.0
0
LINE
8
THEP_DAI
10
675.0000
20
629.0000
30
0.0
11
785.0000
21
629.0000
31
0.0
0
LINE
8
THEP_DAI
10
675.0000
20
647.0000
30
0.0
11
785.0000
21
647.0000
31
0.0
0
LINE
8
THEP_DAI
10
675.0000
20
665.0000
30
0.0
11
785.0000
21
665.0000
31
0.0
0
TEXT
8
THEP_DAI
10
815.0000
20
545.0000
30
0.0
40
3.5000
1
Đai trong nút khung: Bố trí đầy đủ theo tính toán.
0
TEXT
8
TEXT_TITLE
10
930.0000
20
465.0000
30
0.0
40
5.5000
1
CHI TIẾT 4: QUY CÁCH UỐN MÓC VÀ ĐAI KHÁNG CHẤN
72
1
11
930.0000
21
465.0000
31
0.0
0
LINE
8
THEP_CHU
10
660.0000
20
380.0000
30
0.0
11
740.0000
21
380.0000
31
0.0
0
ARC
8
THEP_CHU
10
740.0000
20
392.0000
30
0.0
40
12.0000
50
270.0000
51
90.0000
0
LINE
8
THEP_CHU
10
740.0000
20
404.0000
30
0.0
11
710.0000
21
404.0000
31
0.0
0
TEXT
8
TEXT
10
700.0000
20
368.0000
30
0.0
40
3.5000
1
Móc chữ U 180° (CB240-T):
72
1
11
700.0000
21
368.0000
31
0.0
0
TEXT
8
TEXT
10
700.0000
20
358.0000
30
0.0
40
3.0000
1
Đoạn thẳng kéo dài >= 2.5d (>= 50mm)
72
1
11
700.0000
21
358.0000
31
0.0
0
LINE
8
THEP_CHU
10
850.0000
20
380.0000
30
0.0
11
920.0000
21
380.0000
31
0.0
0
LINE
8
THEP_CHU
10
920.0000
20
380.0000
30
0.0
11
920.0000
21
340.0000
31
0.0
0
TEXT
8
TEXT
10
890.0000
20
368.0000
30
0.0
40
3.5000
1
Móc vuông 90° (CB300-V, CB400-V):
72
1
11
890.0000
21
368.0000
31
0.0
0
TEXT
8
TEXT
10
890.0000
20
358.0000
30
0.0
40
3.0000
1
Đoạn thẳng sau khúc uốn >= 12d
72
1
11
890.0000
21
358.0000
31
0.0
0
LINE
8
THEP_DAI
10
1050.0000
20
360.0000
30
0.0
11
1110.0000
21
360.0000
31
0.0
0
LINE
8
THEP_DAI
10
1110.0000
20
360.0000
30
0.0
11
1110.0000
21
420.0000
31
0.0
0
LINE
8
THEP_DAI
10
1110.0000
20
420.0000
30
0.0
11
1050.0000
21
420.0000
31
0.0
0
LINE
8
THEP_DAI
10
1050.0000
20
420.0000
30
0.0
11
1050.0000
21
360.0000
31
0.0
0
LINE
8
THEP_DAI
10
1050.0000
20
420.0000
30
0.0
11
1072.0000
21
398.0000
31
0.0
0
LINE
8
THEP_DAI
10
1050.0000
20
405.0000
30
0.0
11
1072.0000
21
383.0000
31
0.0
0
TEXT
8
TEXT
10
1080.0000
20
348.0000
30
0.0
40
3.5000
1
Móc đai kháng chấn 135° (TCVN 9386):
72
1
11
1080.0000
21
348.0000
31
0.0
0
TEXT
8
TEXT
10
1080.0000
20
338.0000
30
0.0
40
3.0000
1
Đoạn thẳng sau móc >= 10d hoặc >= 75mm
72
1
11
1080.0000
21
338.0000
31
0.0
0
TEXT
8
TEXT_TITLE
10
930.0000
20
295.0000
30
0.0
40
5.5000
1
BẢNG TRA CHIỀU DÀI NEO VÀ NỐI CỐT THÉP (TCVN 5574:2018) - ĐƠN VỊ: MM
72
1
11
930.0000
21
295.0000
31
0.0
0
LINE
8
DIMENSION
10
640.0000
20
259.0000
30
0.0
11
1222.0000
21
259.0000
31
0.0
0
LINE
8
DIMENSION
10
1222.0000
20
259.0000
30
0.0
11
1222.0000
21
275.0000
31
0.0
0
LINE
8
DIMENSION
10
1222.0000
20
275.0000
30
0.0
11
640.0000
21
275.0000
31
0.0
0
LINE
8
DIMENSION
10
640.0000
20
275.0000
30
0.0
11
640.0000
21
259.0000
31
0.0
0
TEXT
8
TEXT_TITLE
10
675.0000
20
264.0000
30
0.0
40
3.5000
1
Cấp BT
72
1
11
675.0000
21
264.0000
31
0.0
0
TEXT
8
TEXT_TITLE
10
740.0000
20
264.0000
30
0.0
40
3.5000
1
Mác Thép
72
1
11
740.0000
21
264.0000
31
0.0
0
TEXT
8
TEXT_TITLE
10
825.0000
20
264.0000
30
0.0
40
3.5000
1
Trạng Thái Ứng Suất
72
1
11
825.0000
21
264.0000
31
0.0
0
TEXT
8
TEXT_TITLE
10
899.0000
20
264.0000
30
0.0
40
3.5000
1
d10
72
1
11
899.0000
21
264.0000
31
0.0
0
TEXT
8
TEXT_TITLE
10
937.0000
20
264.0000
30
0.0
40
3.5000
1
d12
72
1
11
937.0000
21
264.0000
31
0.0
0
TEXT
8
TEXT_TITLE
10
975.0000
20
264.0000
30
0.0
40
3.5000
1
d14
72
1
11
975.0000
21
264.0000
31
0.0
0
TEXT
8
TEXT_TITLE
10
1013.0000
20
264.0000
30
0.0
40
3.5000
1
d16
72
1
11
1013.0000
21
264.0000
31
0.0
0
TEXT
8
TEXT_TITLE
10
1051.0000
20
264.0000
30
0.0
40
3.5000
1
d18
72
1
11
1051.0000
21
264.0000
31
0.0
0
TEXT
8
TEXT_TITLE
10
1089.0000
20
264.0000
30
0.0
40
3.5000
1
d20
72
1
11
1089.0000
21
264.0000
31
0.0
0
TEXT
8
TEXT_TITLE
10
1127.0000
20
264.0000
30
0.0
40
3.5000
1
d22
72
1
11
1127.0000
21
264.0000
31
0.0
0
TEXT
8
TEXT_TITLE
10
1165.0000
20
264.0000
30
0.0
40
3.5000
1
d25
72
1
11
1165.0000
21
264.0000
31
0.0
0
TEXT
8
TEXT_TITLE
10
1203.0000
20
264.0000
30
0.0
40
3.5000
1
d28
72
1
11
1203.0000
21
264.0000
31
0.0
0
LINE
8
KHUNG_BAN_VE
10
640.0000
20
244.0000
30
0.0
11
1222.0000
21
244.0000
31
0.0
0
LINE
8
KHUNG_BAN_VE
10
1222.0000
20
244.0000
30
0.0
11
1222.0000
21
259.0000
31
0.0
0
LINE
8
KHUNG_BAN_VE
10
1222.0000
20
259.0000
30
0.0
11
640.0000
21
259.0000
31
0.0
0
LINE
8
KHUNG_BAN_VE
10
640.0000
20
259.0000
30
0.0
11
640.0000
21
244.0000
31
0.0
0
TEXT
8
TEXT
10
675.0000
20
248.0000
30
0.0
40
3.2000
1
B25 (M350)
72
1
11
675.0000
21
248.0000
31
0.0
0
TEXT
8
TEXT
10
740.0000
20
248.0000
30
0.0
40
3.2000
1
CB240-T
72
1
11
740.0000
21
248.0000
31
0.0
0
TEXT
8
TEXT
10
775.0000
20
248.0000
30
0.0
40
3.2000
1
Neo kéo (có móc)
0
TEXT
8
TEXT
10
899.0000
20
248.0000
30
0.0
40
3.2000
1
200
72
1
11
899.0000
21
248.0000
31
0.0
0
TEXT
8
TEXT
10
937.0000
20
248.0000
30
0.0
40
3.2000
1
240
72
1
11
937.0000
21
248.0000
31
0.0
0
TEXT
8
TEXT
10
975.0000
20
248.0000
30
0.0
40
3.2000
1
280
72
1
11
975.0000
21
248.0000
31
0.0
0
TEXT
8
TEXT
10
1013.0000
20
248.0000
30
0.0
40
3.2000
1
320
72
1
11
1013.0000
21
248.0000
31
0.0
0
TEXT
8
TEXT
10
1051.0000
20
248.0000
30
0.0
40
3.2000
1
360
72
1
11
1051.0000
21
248.0000
31
0.0
0
TEXT
8
TEXT
10
1089.0000
20
248.0000
30
0.0
40
3.2000
1
400
72
1
11
1089.0000
21
248.0000
31
0.0
0
TEXT
8
TEXT
10
1127.0000
20
248.0000
30
0.0
40
3.2000
1
440
72
1
11
1127.0000
21
248.0000
31
0.0
0
TEXT
8
TEXT
10
1165.0000
20
248.0000
30
0.0
40
3.2000
1
500
72
1
11
1165.0000
21
248.0000
31
0.0
0
TEXT
8
TEXT
10
1203.0000
20
248.0000
30
0.0
40
3.2000
1
560
72
1
11
1203.0000
21
248.0000
31
0.0
0
LINE
8
KHUNG_BAN_VE
10
640.0000
20
229.0000
30
0.0
11
1222.0000
21
229.0000
31
0.0
0
LINE
8
KHUNG_BAN_VE
10
1222.0000
20
229.0000
30
0.0
11
1222.0000
21
244.0000
31
0.0
0
LINE
8
KHUNG_BAN_VE
10
1222.0000
20
244.0000
30
0.0
11
640.0000
21
244.0000
31
0.0
0
LINE
8
KHUNG_BAN_VE
10
640.0000
20
244.0000
30
0.0
11
640.0000
21
229.0000
31
0.0
0
TEXT
8
TEXT
10
675.0000
20
233.0000
30
0.0
40
3.2000
1
B25 (M350)
72
1
11
675.0000
21
233.0000
31
0.0
0
TEXT
8
TEXT
10
740.0000
20
233.0000
30
0.0
40
3.2000
1
CB240-T
72
1
11
740.0000
21
233.0000
31
0.0
0
TEXT
8
TEXT
10
775.0000
20
233.0000
30
0.0
40
3.2000
1
Nối kéo (<=50%)
0
TEXT
8
TEXT
10
899.0000
20
233.0000
30
0.0
40
3.2000
1
350
72
1
11
899.0000
21
233.0000
31
0.0
0
TEXT
8
TEXT
10
937.0000
20
233.0000
30
0.0
40
3.2000
1
420
72
1
11
937.0000
21
233.0000
31
0.0
0
TEXT
8
TEXT
10
975.0000
20
233.0000
30
0.0
40
3.2000
1
490
72
1
11
975.0000
21
233.0000
31
0.0
0
TEXT
8
TEXT
10
1013.0000
20
233.0000
30
0.0
40
3.2000
1
560
72
1
11
1013.0000
21
233.0000
31
0.0
0
TEXT
8
TEXT
10
1051.0000
20
233.0000
30
0.0
40
3.2000
1
630
72
1
11
1051.0000
21
233.0000
31
0.0
0
TEXT
8
TEXT
10
1089.0000
20
233.0000
30
0.0
40
3.2000
1
700
72
1
11
1089.0000
21
233.0000
31
0.0
0
TEXT
8
TEXT
10
1127.0000
20
233.0000
30
0.0
40
3.2000
1
770
72
1
11
1127.0000
21
233.0000
31
0.0
0
TEXT
8
TEXT
10
1165.0000
20
233.0000
30
0.0
40
3.2000
1
880
72
1
11
1165.0000
21
233.0000
31
0.0
0
TEXT
8
TEXT
10
1203.0000
20
233.0000
30
0.0
40
3.2000
1
980
72
1
11
1203.0000
21
233.0000
31
0.0
0
LINE
8
KHUNG_BAN_VE
10
640.0000
20
214.0000
30
0.0
11
1222.0000
21
214.0000
31
0.0
0
LINE
8
KHUNG_BAN_VE
10
1222.0000
20
214.0000
30
0.0
11
1222.0000
21
229.0000
31
0.0
0
LINE
8
KHUNG_BAN_VE
10
1222.0000
20
229.0000
30
0.0
11
640.0000
21
229.0000
31
0.0
0
LINE
8
KHUNG_BAN_VE
10
640.0000
20
229.0000
30
0.0
11
640.0000
21
214.0000
31
0.0
0
TEXT
8
TEXT
10
675.0000
20
218.0000
30
0.0
40
3.2000
1
B25 (M350)
72
1
11
675.0000
21
218.0000
31
0.0
0
TEXT
8
TEXT
10
740.0000
20
218.0000
30
0.0
40
3.2000
1
CB300-V
72
1
11
740.0000
21
218.0000
31
0.0
0
TEXT
8
TEXT
10
775.0000
20
218.0000
30
0.0
40
3.2000
1
Neo kéo (thẳng)
0
TEXT
8
TEXT
10
899.0000
20
218.0000
30
0.0
40
3.2000
1
350
72
1
11
899.0000
21
218.0000
31
0.0
0
TEXT
8
TEXT
10
937.0000
20
218.0000
30
0.0
40
3.2000
1
420
72
1
11
937.0000
21
218.0000
31
0.0
0
TEXT
8
TEXT
10
975.0000
20
218.0000
30
0.0
40
3.2000
1
490
72
1
11
975.0000
21
218.0000
31
0.0
0
TEXT
8
TEXT
10
1013.0000
20
218.0000
30
0.0
40
3.2000
1
560
72
1
11
1013.0000
21
218.0000
31
0.0
0
TEXT
8
TEXT
10
1051.0000
20
218.0000
30
0.0
40
3.2000
1
630
72
1
11
1051.0000
21
218.0000
31
0.0
0
TEXT
8
TEXT
10
1089.0000
20
218.0000
30
0.0
40
3.2000
1
700
72
1
11
1089.0000
21
218.0000
31
0.0
0
TEXT
8
TEXT
10
1127.0000
20
218.0000
30
0.0
40
3.2000
1
770
72
1
11
1127.0000
21
218.0000
31
0.0
0
TEXT
8
TEXT
10
1165.0000
20
218.0000
30
0.0
40
3.2000
1
880
72
1
11
1165.0000
21
218.0000
31
0.0
0
TEXT
8
TEXT
10
1203.0000
20
218.0000
30
0.0
40
3.2000
1
980
72
1
11
1203.0000
21
218.0000
31
0.0
0
LINE
8
KHUNG_BAN_VE
10
640.0000
20
199.0000
30
0.0
11
1222.0000
21
199.0000
31
0.0
0
LINE
8
KHUNG_BAN_VE
10
1222.0000
20
199.0000
30
0.0
11
1222.0000
21
214.0000
31
0.0
0
LINE
8
KHUNG_BAN_VE
10
1222.0000
20
214.0000
30
0.0
11
640.0000
21
214.0000
31
0.0
0
LINE
8
KHUNG_BAN_VE
10
640.0000
20
214.0000
30
0.0
11
640.0000
21
199.0000
31
0.0
0
TEXT
8
TEXT
10
675.0000
20
203.0000
30
0.0
40
3.2000
1
B25 (M350)
72
1
11
675.0000
21
203.0000
31
0.0
0
TEXT
8
TEXT
10
740.0000
20
203.0000
30
0.0
40
3.2000
1
CB300-V
72
1
11
740.0000
21
203.0000
31
0.0
0
TEXT
8
TEXT
10
775.0000
20
203.0000
30
0.0
40
3.2000
1
Neo kéo (móc 90°)
0
TEXT
8
TEXT
10
899.0000
20
203.0000
30
0.0
40
3.2000
1
250
72
1
11
899.0000
21
203.0000
31
0.0
0
TEXT
8
TEXT
10
937.0000
20
203.0000
30
0.0
40
3.2000
1
300
72
1
11
937.0000
21
203.0000
31
0.0
0
TEXT
8
TEXT
10
975.0000
20
203.0000
30
0.0
40
3.2000
1
350
72
1
11
975.0000
21
203.0000
31
0.0
0
TEXT
8
TEXT
10
1013.0000
20
203.0000
30
0.0
40
3.2000
1
400
72
1
11
1013.0000
21
203.0000
31
0.0
0
TEXT
8
TEXT
10
1051.0000
20
203.0000
30
0.0
40
3.2000
1
450
72
1
11
1051.0000
21
203.0000
31
0.0
0
TEXT
8
TEXT
10
1089.0000
20
203.0000
30
0.0
40
3.2000
1
500
72
1
11
1089.0000
21
203.0000
31
0.0
0
TEXT
8
TEXT
10
1127.0000
20
203.0000
30
0.0
40
3.2000
1
550
72
1
11
1127.0000
21
203.0000
31
0.0
0
TEXT
8
TEXT
10
1165.0000
20
203.0000
30
0.0
40
3.2000
1
630
72
1
11
1165.0000
21
203.0000
31
0.0
0
TEXT
8
TEXT
10
1203.0000
20
203.0000
30
0.0
40
3.2000
1
700
72
1
11
1203.0000
21
203.0000
31
0.0
0
LINE
8
KHUNG_BAN_VE
10
640.0000
20
184.0000
30
0.0
11
1222.0000
21
184.0000
31
0.0
0
LINE
8
KHUNG_BAN_VE
10
1222.0000
20
184.0000
30
0.0
11
1222.0000
21
199.0000
31
0.0
0
LINE
8
KHUNG_BAN_VE
10
1222.0000
20
199.0000
30
0.0
11
640.0000
21
199.0000
31
0.0
0
LINE
8
KHUNG_BAN_VE
10
640.0000
20
199.0000
30
0.0
11
640.0000
21
184.0000
31
0.0
0
TEXT
8
TEXT
10
675.0000
20
188.0000
30
0.0
40
3.2000
1
B25 (M350)
72
1
11
675.0000
21
188.0000
31
0.0
0
TEXT
8
TEXT
10
740.0000
20
188.0000
30
0.0
40
3.2000
1
CB300-V
72
1
11
740.0000
21
188.0000
31
0.0
0
TEXT
8
TEXT
10
775.0000
20
188.0000
30
0.0
40
3.2000
1
Nối kéo (<=50%)
0
TEXT
8
TEXT
10
899.0000
20
188.0000
30
0.0
40
3.2000
1
400
72
1
11
899.0000
21
188.0000
31
0.0
0
TEXT
8
TEXT
10
937.0000
20
188.0000
30
0.0
40
3.2000
1
480
72
1
11
937.0000
21
188.0000
31
0.0
0
TEXT
8
TEXT
10
975.0000
20
188.0000
30
0.0
40
3.2000
1
560
72
1
11
975.0000
21
188.0000
31
0.0
0
TEXT
8
TEXT
10
1013.0000
20
188.0000
30
0.0
40
3.2000
1
640
72
1
11
1013.0000
21
188.0000
31
0.0
0
TEXT
8
TEXT
10
1051.0000
20
188.0000
30
0.0
40
3.2000
1
720
72
1
11
1051.0000
21
188.0000
31
0.0
0
TEXT
8
TEXT
10
1089.0000
20
188.0000
30
0.0
40
3.2000
1
800
72
1
11
1089.0000
21
188.0000
31
0.0
0
TEXT
8
TEXT
10
1127.0000
20
188.0000
30
0.0
40
3.2000
1
880
72
1
11
1127.0000
21
188.0000
31
0.0
0
TEXT
8
TEXT
10
1165.0000
20
188.0000
30
0.0
40
3.2000
1
1000
72
1
11
1165.0000
21
188.0000
31
0.0
0
TEXT
8
TEXT
10
1203.0000
20
188.0000
30
0.0
40
3.2000
1
1120
72
1
11
1203.0000
21
188.0000
31
0.0
0
LINE
8
KHUNG_BAN_VE
10
640.0000
20
169.0000
30
0.0
11
1222.0000
21
169.0000
31
0.0
0
LINE
8
KHUNG_BAN_VE
10
1222.0000
20
169.0000
30
0.0
11
1222.0000
21
184.0000
31
0.0
0
LINE
8
KHUNG_BAN_VE
10
1222.0000
20
184.0000
30
0.0
11
640.0000
21
184.0000
31
0.0
0
LINE
8
KHUNG_BAN_VE
10
640.0000
20
184.0000
30
0.0
11
640.0000
21
169.0000
31
0.0
0
TEXT
8
TEXT
10
675.0000
20
173.0000
30
0.0
40
3.2000
1
B25 (M350)
72
1
11
675.0000
21
173.0000
31
0.0
0
TEXT
8
TEXT
10
740.0000
20
173.0000
30
0.0
40
3.2000
1
CB400-V
72
1
11
740.0000
21
173.0000
31
0.0
0
TEXT
8
TEXT
10
775.0000
20
173.0000
30
0.0
40
3.2000
1
Neo kéo (thẳng)
0
TEXT
8
TEXT
10
899.0000
20
173.0000
30
0.0
40
3.2000
1
400
72
1
11
899.0000
21
173.0000
31
0.0
0
TEXT
8
TEXT
10
937.0000
20
173.0000
30
0.0
40
3.2000
1
480
72
1
11
937.0000
21
173.0000
31
0.0
0
TEXT
8
TEXT
10
975.0000
20
173.0000
30
0.0
40
3.2000
1
560
72
1
11
975.0000
21
173.0000
31
0.0
0
TEXT
8
TEXT
10
1013.0000
20
173.0000
30
0.0
40
3.2000
1
640
72
1
11
1013.0000
21
173.0000
31
0.0
0
TEXT
8
TEXT
10
1051.0000
20
173.0000
30
0.0
40
3.2000
1
720
72
1
11
1051.0000
21
173.0000
31
0.0
0
TEXT
8
TEXT
10
1089.0000
20
173.0000
30
0.0
40
3.2000
1
800
72
1
11
1089.0000
21
173.0000
31
0.0
0
TEXT
8
TEXT
10
1127.0000
20
173.0000
30
0.0
40
3.2000
1
880
72
1
11
1127.0000
21
173.0000
31
0.0
0
TEXT
8
TEXT
10
1165.0000
20
173.0000
30
0.0
40
3.2000
1
1000
72
1
11
1165.0000
21
173.0000
31
0.0
0
TEXT
8
TEXT
10
1203.0000
20
173.0000
30
0.0
40
3.2000
1
1120
72
1
11
1203.0000
21
173.0000
31
0.0
0
LINE
8
KHUNG_BAN_VE
10
640.0000
20
154.0000
30
0.0
11
1222.0000
21
154.0000
31
0.0
0
LINE
8
KHUNG_BAN_VE
10
1222.0000
20
154.0000
30
0.0
11
1222.0000
21
169.0000
31
0.0
0
LINE
8
KHUNG_BAN_VE
10
1222.0000
20
169.0000
30
0.0
11
640.0000
21
169.0000
31
0.0
0
LINE
8
KHUNG_BAN_VE
10
640.0000
20
169.0000
30
0.0
11
640.0000
21
154.0000
31
0.0
0
TEXT
8
TEXT
10
675.0000
20
158.0000
30
0.0
40
3.2000
1
B25 (M350)
72
1
11
675.0000
21
158.0000
31
0.0
0
TEXT
8
TEXT
10
740.0000
20
158.0000
30
0.0
40
3.2000
1
CB400-V
72
1
11
740.0000
21
158.0000
31
0.0
0
TEXT
8
TEXT
10
775.0000
20
158.0000
30
0.0
40
3.2000
1
Neo kéo (móc 90°)
0
TEXT
8
TEXT
10
899.0000
20
158.0000
30
0.0
40
3.2000
1
300
72
1
11
899.0000
21
158.0000
31
0.0
0
TEXT
8
TEXT
10
937.0000
20
158.0000
30
0.0
40
3.2000
1
360
72
1
11
937.0000
21
158.0000
31
0.0
0
TEXT
8
TEXT
10
975.0000
20
158.0000
30
0.0
40
3.2000
1
420
72
1
11
975.0000
21
158.0000
31
0.0
0
TEXT
8
TEXT
10
1013.0000
20
158.0000
30
0.0
40
3.2000
1
480
72
1
11
1013.0000
21
158.0000
31
0.0
0
TEXT
8
TEXT
10
1051.0000
20
158.0000
30
0.0
40
3.2000
1
540
72
1
11
1051.0000
21
158.0000
31
0.0
0
TEXT
8
TEXT
10
1089.0000
20
158.0000
30
0.0
40
3.2000
1
600
72
1
11
1089.0000
21
158.0000
31
0.0
0
TEXT
8
TEXT
10
1127.0000
20
158.0000
30
0.0
40
3.2000
1
660
72
1
11
1127.0000
21
158.0000
31
0.0
0
TEXT
8
TEXT
10
1165.0000
20
158.0000
30
0.0
40
3.2000
1
750
72
1
11
1165.0000
21
158.0000
31
0.0
0
TEXT
8
TEXT
10
1203.0000
20
158.0000
30
0.0
40
3.2000
1
840
72
1
11
1203.0000
21
158.0000
31
0.0
0
LINE
8
KHUNG_BAN_VE
10
640.0000
20
139.0000
30
0.0
11
1222.0000
21
139.0000
31
0.0
0
LINE
8
KHUNG_BAN_VE
10
1222.0000
20
139.0000
30
0.0
11
1222.0000
21
154.0000
31
0.0
0
LINE
8
KHUNG_BAN_VE
10
1222.0000
20
154.0000
30
0.0
11
640.0000
21
154.0000
31
0.0
0
LINE
8
KHUNG_BAN_VE
10
640.0000
20
154.0000
30
0.0
11
640.0000
21
139.0000
31
0.0
0
TEXT
8
TEXT
10
675.0000
20
143.0000
30
0.0
40
3.2000
1
B25 (M350)
72
1
11
675.0000
21
143.0000
31
0.0
0
TEXT
8
TEXT
10
740.0000
20
143.0000
30
0.0
40
3.2000
1
CB400-V
72
1
11
740.0000
21
143.0000
31
0.0
0
TEXT
8
TEXT
10
775.0000
20
143.0000
30
0.0
40
3.2000
1
Nối kéo (<=50%)
0
TEXT
8
TEXT
10
899.0000
20
143.0000
30
0.0
40
3.2000
1
450
72
1
11
899.0000
21
143.0000
31
0.0
0
TEXT
8
TEXT
10
937.0000
20
143.0000
30
0.0
40
3.2000
1
540
72
1
11
937.0000
21
143.0000
31
0.0
0
TEXT
8
TEXT
10
975.0000
20
143.0000
30
0.0
40
3.2000
1
630
72
1
11
975.0000
21
143.0000
31
0.0
0
TEXT
8
TEXT
10
1013.0000
20
143.0000
30
0.0
40
3.2000
1
720
72
1
11
1013.0000
21
143.0000
31
0.0
0
TEXT
8
TEXT
10
1051.0000
20
143.0000
30
0.0
40
3.2000
1
810
72
1
11
1051.0000
21
143.0000
31
0.0
0
TEXT
8
TEXT
10
1089.0000
20
143.0000
30
0.0
40
3.2000
1
900
72
1
11
1089.0000
21
143.0000
31
0.0
0
TEXT
8
TEXT
10
1127.0000
20
143.0000
30
0.0
40
3.2000
1
990
72
1
11
1127.0000
21
143.0000
31
0.0
0
TEXT
8
TEXT
10
1165.0000
20
143.0000
30
0.0
40
3.2000
1
1130
72
1
11
1165.0000
21
143.0000
31
0.0
0
TEXT
8
TEXT
10
1203.0000
20
143.0000
30
0.0
40
3.2000
1
1260
72
1
11
1203.0000
21
143.0000
31
0.0
0
LINE
8
KHUNG_BAN_VE
10
640.0000
20
124.0000
30
0.0
11
1222.0000
21
124.0000
31
0.0
0
LINE
8
KHUNG_BAN_VE
10
1222.0000
20
124.0000
30
0.0
11
1222.0000
21
139.0000
31
0.0
0
LINE
8
KHUNG_BAN_VE
10
1222.0000
20
139.0000
30
0.0
11
640.0000
21
139.0000
31
0.0
0
LINE
8
KHUNG_BAN_VE
10
640.0000
20
139.0000
30
0.0
11
640.0000
21
124.0000
31
0.0
0
TEXT
8
TEXT
10
675.0000
20
128.0000
30
0.0
40
3.2000
1
B25 (M350)
72
1
11
675.0000
21
128.0000
31
0.0
0
TEXT
8
TEXT
10
740.0000
20
128.0000
30
0.0
40
3.2000
1
CB400-V
72
1
11
740.0000
21
128.0000
31
0.0
0
TEXT
8
TEXT
10
775.0000
20
128.0000
30
0.0
40
3.2000
1
Nối nén
0
TEXT
8
TEXT
10
899.0000
20
128.0000
30
0.0
40
3.2000
1
350
72
1
11
899.0000
21
128.0000
31
0.0
0
TEXT
8
TEXT
10
937.0000
20
128.0000
30
0.0
40
3.2000
1
420
72
1
11
937.0000
21
128.0000
31
0.0
0
TEXT
8
TEXT
10
975.0000
20
128.0000
30
0.0
40
3.2000
1
490
72
1
11
975.0000
21
128.0000
31
0.0
0
TEXT
8
TEXT
10
1013.0000
20
128.0000
30
0.0
40
3.2000
1
560
72
1
11
1013.0000
21
128.0000
31
0.0
0
TEXT
8
TEXT
10
1051.0000
20
128.0000
30
0.0
40
3.2000
1
630
72
1
11
1051.0000
21
128.0000
31
0.0
0
TEXT
8
TEXT
10
1089.0000
20
128.0000
30
0.0
40
3.2000
1
700
72
1
11
1089.0000
21
128.0000
31
0.0
0
TEXT
8
TEXT
10
1127.0000
20
128.0000
30
0.0
40
3.2000
1
770
72
1
11
1127.0000
21
128.0000
31
0.0
0
TEXT
8
TEXT
10
1165.0000
20
128.0000
30
0.0
40
3.2000
1
880
72
1
11
1165.0000
21
128.0000
31
0.0
0
TEXT
8
TEXT
10
1203.0000
20
128.0000
30
0.0
40
3.2000
1
980
72
1
11
1203.0000
21
128.0000
31
0.0
0
LINE
8
KHUNG_BAN_VE
10
640.0000
20
109.0000
30
0.0
11
1222.0000
21
109.0000
31
0.0
0
LINE
8
KHUNG_BAN_VE
10
1222.0000
20
109.0000
30
0.0
11
1222.0000
21
124.0000
31
0.0
0
LINE
8
KHUNG_BAN_VE
10
1222.0000
20
124.0000
30
0.0
11
640.0000
21
124.0000
31
0.0
0
LINE
8
KHUNG_BAN_VE
10
640.0000
20
124.0000
30
0.0
11
640.0000
21
109.0000
31
0.0
0
TEXT
8
TEXT
10
675.0000
20
113.0000
30
0.0
40
3.2000
1
B30 (M400)
72
1
11
675.0000
21
113.0000
31
0.0
0
TEXT
8
TEXT
10
740.0000
20
113.0000
30
0.0
40
3.2000
1
CB400-V
72
1
11
740.0000
21
113.0000
31
0.0
0
TEXT
8
TEXT
10
775.0000
20
113.0000
30
0.0
40
3.2000
1
Neo kéo (móc 90°)
0
TEXT
8
TEXT
10
899.0000
20
113.0000
30
0.0
40
3.2000
1
250
72
1
11
899.0000
21
113.0000
31
0.0
0
TEXT
8
TEXT
10
937.0000
20
113.0000
30
0.0
40
3.2000
1
300
72
1
11
937.0000
21
113.0000
31
0.0
0
TEXT
8
TEXT
10
975.0000
20
113.0000
30
0.0
40
3.2000
1
350
72
1
11
975.0000
21
113.0000
31
0.0
0
TEXT
8
TEXT
10
1013.0000
20
113.0000
30
0.0
40
3.2000
1
400
72
1
11
1013.0000
21
113.0000
31
0.0
0
TEXT
8
TEXT
10
1051.0000
20
113.0000
30
0.0
40
3.2000
1
450
72
1
11
1051.0000
21
113.0000
31
0.0
0
TEXT
8
TEXT
10
1089.0000
20
113.0000
30
0.0
40
3.2000
1
500
72
1
11
1089.0000
21
113.0000
31
0.0
0
TEXT
8
TEXT
10
1127.0000
20
113.0000
30
0.0
40
3.2000
1
550
72
1
11
1127.0000
21
113.0000
31
0.0
0
TEXT
8
TEXT
10
1165.0000
20
113.0000
30
0.0
40
3.2000
1
630
72
1
11
1165.0000
21
113.0000
31
0.0
0
TEXT
8
TEXT
10
1203.0000
20
113.0000
30
0.0
40
3.2000
1
700
72
1
11
1203.0000
21
113.0000
31
0.0
0
LINE
8
KHUNG_BAN_VE
10
640.0000
20
94.0000
30
0.0
11
1222.0000
21
94.0000
31
0.0
0
LINE
8
KHUNG_BAN_VE
10
1222.0000
20
94.0000
30
0.0
11
1222.0000
21
109.0000
31
0.0
0
LINE
8
KHUNG_BAN_VE
10
1222.0000
20
109.0000
30
0.0
11
640.0000
21
109.0000
31
0.0
0
LINE
8
KHUNG_BAN_VE
10
640.0000
20
109.0000
30
0.0
11
640.0000
21
94.0000
31
0.0
0
TEXT
8
TEXT
10
675.0000
20
98.0000
30
0.0
40
3.2000
1
B30 (M400)
72
1
11
675.0000
21
98.0000
31
0.0
0
TEXT
8
TEXT
10
740.0000
20
98.0000
30
0.0
40
3.2000
1
CB400-V
72
1
11
740.0000
21
98.0000
31
0.0
0
TEXT
8
TEXT
10
775.0000
20
98.0000
30
0.0
40
3.2000
1
Nối kéo (<=50%)
0
TEXT
8
TEXT
10
899.0000
20
98.0000
30
0.0
40
3.2000
1
400
72
1
11
899.0000
21
98.0000
31
0.0
0
TEXT
8
TEXT
10
937.0000
20
98.0000
30
0.0
40
3.2000
1
480
72
1
11
937.0000
21
98.0000
31
0.0
0
TEXT
8
TEXT
10
975.0000
20
98.0000
30
0.0
40
3.2000
1
560
72
1
11
975.0000
21
98.0000
31
0.0
0
TEXT
8
TEXT
10
1013.0000
20
98.0000
30
0.0
40
3.2000
1
640
72
1
11
1013.0000
21
98.0000
31
0.0
0
TEXT
8
TEXT
10
1051.0000
20
98.0000
30
0.0
40
3.2000
1
720
72
1
11
1051.0000
21
98.0000
31
0.0
0
TEXT
8
TEXT
10
1089.0000
20
98.0000
30
0.0
40
3.2000
1
800
72
1
11
1089.0000
21
98.0000
31
0.0
0
TEXT
8
TEXT
10
1127.0000
20
98.0000
30
0.0
40
3.2000
1
880
72
1
11
1127.0000
21
98.0000
31
0.0
0
TEXT
8
TEXT
10
1165.0000
20
98.0000
30
0.0
40
3.2000
1
1000
72
1
11
1165.0000
21
98.0000
31
0.0
0
TEXT
8
TEXT
10
1203.0000
20
98.0000
30
0.0
40
3.2000
1
1120
72
1
11
1203.0000
21
98.0000
31
0.0
0
LINE
8
KHUNG_BAN_VE
10
640.0000
20
79.0000
30
0.0
11
1222.0000
21
79.0000
31
0.0
0
LINE
8
KHUNG_BAN_VE
10
1222.0000
20
79.0000
30
0.0
11
1222.0000
21
94.0000
31
0.0
0
LINE
8
KHUNG_BAN_VE
10
1222.0000
20
94.0000
30
0.0
11
640.0000
21
94.0000
31
0.0
0
LINE
8
KHUNG_BAN_VE
10
640.0000
20
94.0000
30
0.0
11
640.0000
21
79.0000
31
0.0
0
TEXT
8
TEXT
10
675.0000
20
83.0000
30
0.0
40
3.2000
1
B30 (M400)
72
1
11
675.0000
21
83.0000
31
0.0
0
TEXT
8
TEXT
10
740.0000
20
83.0000
30
0.0
40
3.2000
1
CB500-V
72
1
11
740.0000
21
83.0000
31
0.0
0
TEXT
8
TEXT
10
775.0000
20
83.0000
30
0.0
40
3.2000
1
Nối kéo (<=50%)
0
TEXT
8
TEXT
10
899.0000
20
83.0000
30
0.0
40
3.2000
1
500
72
1
11
899.0000
21
83.0000
31
0.0
0
TEXT
8
TEXT
10
937.0000
20
83.0000
30
0.0
40
3.2000
1
600
72
1
11
937.0000
21
83.0000
31
0.0
0
TEXT
8
TEXT
10
975.0000
20
83.0000
30
0.0
40
3.2000
1
700
72
1
11
975.0000
21
83.0000
31
0.0
0
TEXT
8
TEXT
10
1013.0000
20
83.0000
30
0.0
40
3.2000
1
800
72
1
11
1013.0000
21
83.0000
31
0.0
0
TEXT
8
TEXT
10
1051.0000
20
83.0000
30
0.0
40
3.2000
1
900
72
1
11
1051.0000
21
83.0000
31
0.0
0
TEXT
8
TEXT
10
1089.0000
20
83.0000
30
0.0
40
3.2000
1
1000
72
1
11
1089.0000
21
83.0000
31
0.0
0
TEXT
8
TEXT
10
1127.0000
20
83.0000
30
0.0
40
3.2000
1
1100
72
1
11
1127.0000
21
83.0000
31
0.0
0
TEXT
8
TEXT
10
1165.0000
20
83.0000
30
0.0
40
3.2000
1
1250
72
1
11
1165.0000
21
83.0000
31
0.0
0
TEXT
8
TEXT
10
1203.0000
20
83.0000
30
0.0
40
3.2000
1
1400
72
1
11
1203.0000
21
83.0000
31
0.0
0
ENDSEC
0
EOF
